<svg xmlns="http://www.w3.org/2000/svg" width="474" height="354" fill="none"><path fill="#E6E6E6" d="M462.974 207.017c49.633 54.889-94.245 133.992-210.503 133.992S55.781 279.718 41.968 207.017C8.476 30.741 327.333-81.3 252.471 73.024c-109.12 224.946 171.416 90.767 210.503 133.993"/><path fill="#3F3D56" d="M440.705 220.008C490.338 274.897 346.459 354 230.202 354c-116.258 0-196.69-61.291-210.503-133.992C-13.794 43.731 305.064-68.309 230.202 86.015c-109.12 224.945 171.415 90.766 210.503 133.993"/><mask id="a" width="191" height="46" x="-.049" y="71.534" fill="#000" maskUnits="userSpaceOnUse"><path fill="#fff" d="M-.049 71.534h191v46h-191z"/><path d="M94.931 115.036c-52.105-2.292-92.505-13.522-91.974-25.567.318-7.22 15.064-13.027 40.457-15.93a.696.696 0 0 1 .75.88.69.69 0 0 1-.592.498C19.652 77.652 4.62 83.251 4.343 89.531c-.48 10.891 41.032 21.937 90.65 24.12 49.616 2.182 91.939-5.175 92.419-16.067.278-6.305-14.297-13.222-38.036-18.051a.68.68 0 0 1-.442-.297.71.71 0 0 1 .003-.772.7.7 0 0 1 .445-.293.7.7 0 0 1 .271.002c25.197 5.126 39.465 12.223 39.146 19.472-.531 12.045-41.763 19.684-93.868 17.391"/></mask><path fill="#47A138" d="M94.931 115.036c-52.105-2.292-92.505-13.522-91.974-25.567.318-7.22 15.064-13.027 40.457-15.93a.696.696 0 0 1 .75.88.69.69 0 0 1-.592.498C19.652 77.652 4.62 83.251 4.343 89.531c-.48 10.891 41.032 21.937 90.65 24.12 49.616 2.182 91.939-5.175 92.419-16.067.278-6.305-14.297-13.222-38.036-18.051a.68.68 0 0 1-.442-.297.71.71 0 0 1 .003-.772.7.7 0 0 1 .445-.293.7.7 0 0 1 .271.002c25.197 5.126 39.465 12.223 39.146 19.472-.531 12.045-41.763 19.684-93.868 17.391"/><path fill="#47A138" d="m2.957 89.47-1.998-.09 1.998.088Zm40.457-15.93.227 1.986.014-.001-.24-1.986Zm.158 1.377-.214-1.988-.013.001zM4.343 89.531l-1.998-.089zm183.069 8.053-1.998-.088zm-38.036-18.051.399-1.96-.006-.001-.393 1.96Zm.277-1.36-.404 1.96h.005zm39.146 19.472-1.998-.088zm-93.78 15.393c-25.952-1.141-48.92-4.508-65.278-9.055-8.195-2.278-14.62-4.823-18.917-7.464-4.454-2.737-5.95-5.145-5.87-6.962L.96 89.382c-.186 4.206 3.17 7.719 7.77 10.546 4.757 2.923 11.59 5.588 19.94 7.91 16.736 4.652 40.021 8.047 66.174 9.197l.176-3.996ZM4.955 89.558c.047-1.082.634-2.329 2.208-3.714 1.582-1.393 4.014-2.784 7.352-4.098 6.666-2.625 16.505-4.777 29.126-6.22l-.454-3.974c-12.771 1.46-23.003 3.663-30.137 6.472-3.563 1.403-6.465 3-8.53 4.817-2.074 1.825-3.45 4.012-3.561 6.54zm38.7-14.033a1.3 1.3 0 0 1-.51-.04l1.08-3.85a2.7 2.7 0 0 0-1.051-.081l.48 3.97Zm-.51-.04a1.3 1.3 0 0 1-.456-.231l2.477-3.141a2.7 2.7 0 0 0-.94-.479l-1.081 3.852Zm-.456-.231a1.3 1.3 0 0 1-.332-.39l3.494-1.948a2.7 2.7 0 0 0-.685-.803zm-.332-.39a1.3 1.3 0 0 1-.157-.488l3.974-.455a2.7 2.7 0 0 0-.323-1.005zm-.157-.488a1.3 1.3 0 0 1 .043-.51l3.843 1.108c.099-.342.129-.7.088-1.053zm.043-.51a1.3 1.3 0 0 1 .236-.455l3.122 2.5c.222-.277.387-.596.485-.937zm.236-.455c.107-.135.24-.246.391-.33l1.922 3.509c.312-.17.587-.401.809-.679zm.391-.33q.23-.124.488-.152l.428 3.977a2.7 2.7 0 0 0 1.006-.316l-1.922-3.508Zm.475-.15c-12.04 1.376-21.956 3.484-28.952 6.09-3.489 1.3-6.36 2.762-8.413 4.397-2.03 1.617-3.529 3.625-3.635 6.024l3.997.177c.032-.74.516-1.787 2.13-3.072 1.59-1.266 4.024-2.551 7.318-3.778 6.57-2.447 16.129-4.507 28.01-5.865zm-41 16.511c-.09 2.048.823 3.897 2.219 5.483 1.39 1.58 3.376 3.044 5.779 4.403 4.813 2.722 11.694 5.244 20.024 7.461 16.693 4.442 39.624 7.764 64.537 8.86l.176-3.996c-24.703-1.087-47.337-4.38-63.684-8.729-8.19-2.18-14.698-4.597-19.084-7.078-2.196-1.242-3.762-2.446-4.744-3.562-.977-1.111-1.256-1.99-1.226-2.666zm92.56 26.207c24.913 1.096 48.047-.2 65.066-3.158 8.493-1.477 15.569-3.385 20.603-5.674 2.513-1.143 4.62-2.426 6.144-3.878 1.529-1.458 2.602-3.22 2.692-5.267l-3.996-.176c-.03.676-.385 1.527-1.456 2.548-1.077 1.026-2.743 2.088-5.04 3.132-4.587 2.086-11.283 3.923-19.632 5.374-16.667 2.897-39.503 4.189-64.206 3.103zm94.505-17.977c.106-2.408-1.218-4.547-3.109-6.34-1.914-1.815-4.661-3.529-8.043-5.134-6.781-3.218-16.535-6.195-28.483-8.625l-.798 3.92c11.791 2.398 21.195 5.295 27.566 8.319 3.194 1.516 5.522 3.015 7.005 4.422 1.505 1.428 1.899 2.518 1.866 3.262zm-39.641-20.1c.168.033.328.1.471.196l-2.229 3.321c.294.198.625.335.972.405zm.471.196q.216.144.36.362l-3.332 2.213c.196.295.449.549.743.746zm.36.362c.095.143.161.303.194.472l-3.926.766a2.7 2.7 0 0 0 .4.975zm.194.472q.05.257-.002.512l-3.919-.8a2.7 2.7 0 0 0-.005 1.054zm-.002.512a1.3 1.3 0 0 1-.198.47l-3.313-2.24a2.7 2.7 0 0 0-.408.97zm-.198.47a1.3 1.3 0 0 1-.363.36l-2.201-3.34a2.7 2.7 0 0 0-.749.74zm-.363.36c-.143.094-.304.16-.473.192l-.753-3.929a2.7 2.7 0 0 0-.975.397zm-.473.192a1.3 1.3 0 0 1-.509-.004l.808-3.917a2.7 2.7 0 0 0-1.052-.008zm-.504-.003c12.525 2.548 22.198 5.562 28.65 8.77 3.231 1.608 5.546 3.212 7.01 4.744 1.457 1.524 1.934 2.824 1.887 3.91l3.996.176c.112-2.538-1.074-4.844-2.991-6.85-1.908-1.997-4.675-3.846-8.121-5.56-6.902-3.434-16.961-6.532-29.633-9.11zm37.547 17.424c-.08 1.817-1.782 4.084-6.459 6.42-4.513 2.254-11.137 4.224-19.501 5.774-16.695 3.093-39.87 4.429-65.822 3.287l-.176 3.996c26.153 1.151 49.647-.186 66.727-3.35 8.523-1.579 15.564-3.634 20.559-6.128 4.831-2.413 8.482-5.617 8.668-9.823z" mask="url(#a)"/><path fill="#47A138" d="M48.504 116.96a53.44 53.44 0 0 0 18.72 20.274 53.4 53.4 0 0 0 53.264 2.211 53.4 53.4 0 0 0 20.335-18.652c-30.82.416-61.64-.864-92.319-3.833m98.086-10.751a53.56 53.56 0 0 0-6.73-47.298 53.35 53.35 0 0 0-18.181-16.438 53.18 53.18 0 0 0-47.62-1.844 53.3 53.3 0 0 0-19.39 14.984 53.5 53.5 0 0 0-10.664 22.094 53.56 53.56 0 0 0 .315 24.542 395 395 0 0 0 102.27 3.96"/><path fill="#fff" d="M108.177 70.497a6.225 6.225 0 1 0 0-12.45 6.225 6.225 0 0 0 0 12.45M76.139 94.792c5.702 0 10.325-4.69 10.325-10.477 0-5.786-4.623-10.477-10.325-10.477-5.703 0-10.325 4.69-10.325 10.477 0 5.786 4.622 10.477 10.325 10.477"/><path fill="#E6E6E6" d="M74.246 212.905a2.783 2.783 0 1 0 0-5.567 2.783 2.783 0 0 0 0 5.567m194.476 108.23a2.783 2.783 0 1 0 .001-5.567 2.783 2.783 0 0 0-.001 5.567M96.054 179.873a1.392 1.392 0 1 0 0-2.783 1.392 1.392 0 0 0 0 2.783m106.706 83.139a1.392 1.392 0 1 0 0-2.783 1.392 1.392 0 0 0 0 2.783m188.776-13.596a1.392 1.392 0 1 0 0-2.785 1.392 1.392 0 0 0 0 2.785m-44.951 41.433a1.392 1.392 0 1 0 0-2.783 1.392 1.392 0 0 0 0 2.783m-165.5-93.363a1.392 1.392 0 1 0 .001-2.783 1.392 1.392 0 0 0-.001 2.783m10.932-68.024a1.392 1.392 0 1 0 0-2.783 1.392 1.392 0 0 0 0 2.783m9.351-94.712a1.392 1.392 0 1 0 0-2.786 1.392 1.392 0 0 0 0 2.785Zm-2.669 301.519a1.393 1.393 0 1 0-.002-2.786 1.393 1.393 0 0 0 .002 2.786m-72.491-41.708a1.392 1.392 0 1 0 0-2.785 1.392 1.392 0 0 0 0 2.785M343.8 244.454a1.392 1.392 0 1 0 0-2.783 1.392 1.392 0 0 0 0 2.783"/><path fill="#fff" d="M94.056 140.648c3.522 0 6.377-2.788 6.377-6.226s-2.855-6.225-6.377-6.225-6.377 2.787-6.377 6.225 2.855 6.226 6.377 6.226"/><path fill="#47A138" d="m404.353 164.189-21.184-17.451a20.56 20.56 0 0 0-9.426-27.953 20.626 20.626 0 0 0-26.66 8.28 20.557 20.557 0 0 0 17.339 30.822 20.56 20.56 0 0 0 13.195-4.41l21.185 17.451a4.367 4.367 0 0 0 6.143-.595 4.364 4.364 0 0 0-.592-6.144m-28.121-17.508a14.695 14.695 0 0 1-24.937-3.746 14.698 14.698 0 0 1 15.059-20.227 14.7 14.7 0 0 1 13.164 13.213 14.66 14.66 0 0 1-3.286 10.76"/><path fill="#FF5031" d="M424.277 133.069c-6.294 0-11.395-5.101-11.395-11.395s5.101-11.395 11.395-11.395 11.395 5.102 11.395 11.395c0 6.294-5.102 11.395-11.395 11.395"/><path fill="#000" d="M417.886 127.383a2.8 2.8 0 0 1-.956-.486 1.46 1.46 0 0 1-.404-.543 1.24 1.24 0 0 1-.09-.633.9.9 0 0 1 .168-.432c.096-.131.226-.242.382-.324.404-.206.938-.198 1.477.009l.062-3.614.438.006-.073 4.247-.333-.181c-.387-.21-.942-.362-1.341-.158a.7.7 0 0 0-.241.211.56.56 0 0 0-.104.277.95.95 0 0 0 .068.472c.064.151.166.29.299.405.475.391 1.177.522 1.979.641l-.077.358a8.5 8.5 0 0 1-1.254-.255m-4.87-5.234 2.699.409-.075.501-2.7-.409zm13.797 0-2.699.409.076.501 2.699-.409z"/><path stroke="#000" d="M396.373 147.482a4.4 4.4 0 0 0-.264-.632l-.001-.001a4.372 4.372 0 0 0-6.771-1.242 4.37 4.37 0 0 0-1.184 4.825 4.365 4.365 0 0 0 4.093 2.815 4.37 4.37 0 0 0 2.483-.78l.23-.16.257.113 23.947 10.571a3.21 3.21 0 0 0 3.755-.87l6.067-7.213-5.937-4.668-3.681 3.603-.206.202-.278-.078-22.169-6.159-.257-.072z"/><path fill="#47A138" d="m419.796 153.847 8.321 6.476a2.08 2.08 0 0 0 2.507.044c.243-.176.446-.403.593-.664l5.172-9.152a5.8 5.8 0 0 0-1.048-8.122 5.796 5.796 0 0 0-8.124 1.026l-7.58 7.234a2.1 2.1 0 0 0-.644 1.616 2.1 2.1 0 0 0 .803 1.542"/><path stroke="#000" d="m408.799 228.417 2.582 20.939h4.746l.001-20.939z"/><path fill="#DEE9EA" d="M418.078 247.999h-11.202a7.145 7.145 0 0 0-7.139 7.138v.232l18.34.001z"/><path stroke="#000" d="m393.952 227.025 2.583 20.939 4.746.001.001-20.94z"/><path fill="#DEE9EA" d="M403.231 246.607h-11.202a7.15 7.15 0 0 0-5.047 2.091 7.13 7.13 0 0 0-2.091 5.047v.232l18.34.001z"/><path fill="#2F2E41" d="M442.14 198.374a18.3 18.3 0 0 1-6.577 8.948 18.3 18.3 0 0 1-10.543 3.491l-.287.004c-2.937.084-6.384-.863-9.766-2.222-6.681-2.686-13.098-6.987-14.8-8.17l2.885 27.739 1.17 11.246a2.1 2.1 0 0 1-.528 1.614 2.1 2.1 0 0 1-1.551.692h-7.205a2.085 2.085 0 0 1-2.023-1.559l-11.895-45.304a8.82 8.82 0 0 1 1.735-7.875 8.83 8.83 0 0 1 7.409-3.181l24.71 1.693-1.726-6.903 22.056-1.466.065.046c.529.385 1.044.789 1.536 1.211a18.7 18.7 0 0 1 3.243 3.554 17.85 17.85 0 0 1 2.092 16.442"/><path fill="#2F2E41" d="M442.14 198.374a18.28 18.28 0 0 1-17.12 12.439 91 91 0 0 1-10.471-6.212l.418 3.994 3.637 34.991a2.09 2.09 0 0 1-.528 1.614 2.1 2.1 0 0 1-1.551.692h-7.205a2.09 2.09 0 0 1-2.022-1.559l-4.246-16.168-7.65-29.136a8.82 8.82 0 0 1 1.735-7.875 8.84 8.84 0 0 1 7.409-3.181l24.71 1.693-1.726-6.903 12.518-.831a17.85 17.85 0 0 1 2.092 16.442"/><path fill="#47A138" d="m436.837 179.978.166-.02 3.848-18.922c.033-.164 3.18-16.485-6.466-25.018l-.167-1.168a2.088 2.088 0 0 0-2.685-1.697l-9.087 2.819a2.08 2.08 0 0 0-1.4 2.524l.883 3.36c-1.225 1.438-15.642 18.796-10.62 32.168l2.249 8.793z"/><path fill="#47A138" d="m422.803 159.619 10.458 1.347a2.09 2.09 0 0 0 2.181-1.238c.12-.275.179-.573.173-.872l-.199-10.511a5.795 5.795 0 0 0-9.305-5.293 5.8 5.8 0 0 0-2.201 3.845l-2.85 10.084a2.1 2.1 0 0 0 .268 1.718 2.1 2.1 0 0 0 1.475.92"/><path stroke="#000" d="m444.427 125.644 1.568 1.78 2.073-1.143.307-1.75.092-.528.521.129.878.218-6.704-12.165-.001-.002c-3.446-6.131-7.628-7.968-10.9-8.32a12.3 12.3 0 0 0-4.122.264c-.514.121-.923.253-1.202.354q-.21.077-.314.122l-.078.033-.017.008-.003.001h-.001l-.111.052-.123-.006c-3.99-.189-6.809.654-8.808 1.981-2 1.329-3.222 3.172-3.964 5.062-.743 1.893-.997 3.819-1.063 5.28a18 18 0 0 0 .016 1.997l13.587.617 1.277-2.325.618-1.125.306 1.247c1.375 5.602.847 10.716-.021 14.423a32 32 0 0 1-1.367 4.407q-.082.206-.158.389l16.997-7.917-.157-2.723-.083-1.447zm-44.831 40.578.258-.069 22.222-5.965.278-.075.075-.278 1.339-4.974 7.485 1.001-1.558 9.296a3.21 3.21 0 0 1-2.79 2.658l-25.996 3.071-.279.033-.117.255a4.38 4.38 0 0 1-1.741 1.934 4.37 4.37 0 1 1 .072-7.473zm0 0-.201-.176a4.3 4.3 0 0 0-.551-.41z"/><path fill="#fff" d="M165.857 272.397a2.04 2.04 0 0 0-.516-.811 2 2 0 0 0-.279-.216c-.793-.528-1.977-.647-2.731 0a2 2 0 0 0-.209.216q-.338.415-.692.811c-.389.443-.787.871-1.203 1.287q-.177.175-.358.35l-.21.203q-.401.381-.817.744-.218.196-.44.383-.332.279-.668.549-.032.023-.064.049-.007.006-.015.012-.004-.001-.009.006a.1.1 0 0 0-.022.015c-.066.046-.112.076-.145.104.012-.006.024-.016.036-.022l-.167.128a30.2 30.2 0 0 1-5.949 3.413q-.15.061-.307.122a26.1 26.1 0 0 1-12.405 1.828 23 23 0 0 1-1.294-.137 27 27 0 0 1-1.485-.261 29.8 29.8 0 0 1-5.472-1.652 36 36 0 0 1-6.274-3.681c-.304-.215-.61-.431-.917-.64.349-.857.692-1.713 1.026-2.576q.25-.623.486-1.251a273 273 0 0 0 3.526-9.757 277 277 0 0 0 3.198-9.997q.155-.51.3-1.02.789-2.656 1.513-5.324c.045-.173.094-.343.136-.516q.21-.765.41-1.531c.304-1.151-.382-2.526-1.591-2.803a2.32 2.32 0 0 0-2.8 1.592c-.131.492-.261.98-.395 1.472a268 268 0 0 1-2.022 7.11l-.31 1.02a269 269 0 0 1-6.842 19.754q-.197.516-.398 1.027-.131.323-.258.644a12.7 12.7 0 0 0-2.675-.644l-.146-.018a8.3 8.3 0 0 0-2.129.018 7.3 7.3 0 0 0-2.978 1.036 7.3 7.3 0 0 0-2.257 2.201c-1.449 2.281-1.431 5.542.601 7.48 2.092 1.995 5.26 1.98 7.722.732a8.6 8.6 0 0 0 3.195-2.995q.454-.684.832-1.412.096.063.192.131.365.257.725.513a34 34 0 0 0 4.407 2.706 32.9 32.9 0 0 0 10.513 3.179q.121.016.243.031.607.075 1.218.124a31.5 31.5 0 0 0 18.187-4.166 32 32 0 0 0 2.995-1.968 30.7 30.7 0 0 0 5.472-5.181c.413-.436.65-1.009.668-1.61a2.3 2.3 0 0 0-.152-.801m-50.286 7.233q.096-.069.188-.142c-.018.045-.106.097-.188.142m.975-.98c-.07.079-.134.157-.204.236a7 7 0 0 1-.789.757h-.003v.003a1 1 0 0 0-.128.066 5 5 0 0 1-.401.219 5 5 0 0 1-.823.228 5 5 0 0 1-.647.006h-.006a5 5 0 0 1-.44-.122 3 3 0 0 1-.213-.121c-.027-.024-.051-.049-.066-.064a.6.6 0 0 1-.082-.088l-.001-.001v-.001l-.001-.001h-.002q-.05-.091-.103-.182l-.003-.006a4 4 0 0 1-.064-.234 4 4 0 0 1 .003-.416q.062-.291.164-.571.093-.198.21-.383c.006-.012.036-.06.07-.115q.004-.003.003-.006.067-.08.14-.155c.082-.091.17-.17.258-.252q.257-.168.531-.307.436-.154.89-.24a7.6 7.6 0 0 1 1.339.013q.634.11 1.245.306-.371.72-.841 1.379zm-3.377-1a.7.7 0 0 1-.094.119.4.4 0 0 1 .094-.119"/><path fill="#fff" d="m156.728 241.382-.082 2.86q-.086 3.176-.179 6.353-.096 3.576-.2 7.149-.05 1.845-.104 3.69l-.279 9.936q-.015.513-.03 1.026l-.137 4.929q-.078 2.674-.152 5.348-.054 2.004-.112 4.012l-.82 29.089a2.324 2.324 0 0 1-2.278 2.278 2.3 2.3 0 0 1-2.277-2.278q.227-8.181.461-16.362.206-7.398.416-14.795l.137-4.878q.105-3.67.206-7.343.015-.513.031-1.026.01-.45.024-.899l.401-14.261q.082-2.805.158-5.615l.182-6.401.079-2.812a2.324 2.324 0 0 1 2.278-2.278 2.297 2.297 0 0 1 2.277 2.278m124.943.632a271 271 0 0 1-8.552 26.706 216 216 0 0 1-2.846 7.2l.23-.544a16.6 16.6 0 0 1-1.698 3.223l-.141.193q.353-.452.134-.179-.114.138-.233.272a7 7 0 0 1-.869.822l.285-.221c-.033.078-.265.182-.337.226a5.5 5.5 0 0 1-.731.37l.545-.23a5.8 5.8 0 0 1-1.285.353l.605-.082c-.433.06-.871.065-1.305.014l.605.082a4.3 4.3 0 0 1-1.034-.279l.544.23a4 4 0 0 1-.509-.272c-.083-.054-.336-.246-.005.007.344.263.044.023-.027-.047-.059-.058-.112-.122-.17-.181-.267-.275.303.473.121.151a6 6 0 0 1-.267-.497l.23.544a3.6 3.6 0 0 1-.221-.805l.081.606a4.2 4.2 0 0 1-.001-1.034l-.081.605c.056-.383.157-.758.302-1.117l-.23.544q.152-.363.358-.698.095-.174.221-.326c.015.005-.385.46-.173.23.056-.06.108-.123.164-.183.09-.095.186-.182.281-.272.317-.302-.444.293-.078.054a6 6 0 0 1 .835-.455l-.544.229a6.2 6.2 0 0 1 1.517-.406l-.605.081a7.8 7.8 0 0 1 1.962.023l-.606-.081c.824.125 1.629.351 2.397.674l-.544-.23c1.636.703 3.086 1.746 4.533 2.769a34 34 0 0 0 4.405 2.705 32.9 32.9 0 0 0 10.514 3.181 31.57 31.57 0 0 0 28.117-11.161c.412-.437.649-1.01.667-1.611a2.32 2.32 0 0 0-.667-1.61c-.836-.767-2.414-.984-3.221 0a29 29 0 0 1-4.467 4.387c-.12.095-.492.346.079-.06-.13.093-.256.195-.385.29a30 30 0 0 1-6.175 3.512l.544-.229a29.5 29.5 0 0 1-7.34 2.011l.605-.081a29.7 29.7 0 0 1-7.82-.012l.605.081a30.3 30.3 0 0 1-7.549-2.056l.544.23a35.2 35.2 0 0 1-6.6-3.824 26.4 26.4 0 0 0-3.375-2.124 13 13 0 0 0-4.385-1.332c-2.866-.338-5.787.779-7.363 3.255-1.45 2.279-1.431 5.54.6 7.478 2.091 1.996 5.259 1.979 7.724.731 2.374-1.203 3.8-3.701 4.803-6.056 2.256-5.301 4.254-10.724 6.116-16.175a271 271 0 0 0 5.559-18.388c.304-1.151-.383-2.527-1.591-2.802a2.32 2.32 0 0 0-2.802 1.591"/><path fill="#fff" d="m304.396 241.381-.819 29.091-.816 28.939-.461 16.363a2.3 2.3 0 0 0 2.277 2.278 2.326 2.326 0 0 0 2.278-2.278l.82-29.09.815-28.939.462-16.364a2.297 2.297 0 0 0-2.278-2.277 2.324 2.324 0 0 0-2.278 2.277m-82.133 52.803a25.97 25.97 0 0 1-8.112 13.836c-.299.263-.599.517-.91.768q-1.135.105-2.254.213-.928.089-1.836.177l-.11.012-.076-.673-.308-2.726a15.6 15.6 0 0 1-2.163-6.505 15.7 15.7 0 0 1 .828-6.814c1.068-2.923 3.002-5.506 4.903-8.068 2.626-3.539 5.179-7.037 5.272-11.352a25 25 0 0 1 3.196 5.473c-.783.374-1.487.9-2.071 1.548-.166.185-.332.443-.219.665.097.189.34.234.55.259l1.522.16q.606.066 1.213.131a26.5 26.5 0 0 1 .991 5.001 25.5 25.5 0 0 1-.416 7.895"/><path fill="#47A138" d="M235.874 283.412c-2.403 1.742-3.808 4.248-4.9 7.009a6.8 6.8 0 0 0-2.92 1.86c-.167.183-.334.439-.22.658.098.187.342.232.554.256l1.532.158c-1.092 3.265-2.094 6.644-4.024 9.402a15.1 15.1 0 0 1-4.9 4.43q-.794.452-1.637.808a454 454 0 0 0-8.357.719c-.623.057-1.238.118-1.849.175a19 19 0 0 1 0-.67 25.67 25.67 0 0 1 6.211-16.188q.274-.316.562-.625a25.2 25.2 0 0 1 6.846-5.157 25.6 25.6 0 0 1 13.102-2.835"/><path fill="#47A138" d="m211.62 306.703-.468 1.386-.236.706c-.622.057-1.236.118-1.846.175l-.11.012-2.018.208a27 27 0 0 1-.52-.624 25.33 25.33 0 0 1-5.668-18.435 25.3 25.3 0 0 1 8.95-17.079c-.537 2.817.09 5.516 1.119 8.195a6.7 6.7 0 0 0-2.4 1.675c-.167.184-.334.441-.22.661.098.188.342.232.553.257l1.53.159c.406.045.813.085 1.22.13l.573.061c.029.062.053.119.082.18 1.159 2.519 2.407 5.051 3.111 7.677q.265.989.415 2.001c.313 2.281.11 4.602-.594 6.793a15.3 15.3 0 0 1-3.473 5.862"/><path fill="#fff" d="M243.872 263.353c-2.614-5.099-6.665-9.39-11.428-12.543a34.7 34.7 0 0 0-15.962-5.581 30 30 0 0 0-2.247-.12c-.887-.013-14.233 3.836-18.703 6.98a34.7 34.7 0 0 0-10.73 12.003 31.1 31.1 0 0 0-3.682 15.68 34.5 34.5 0 0 0 4.465 15.632 33.55 33.55 0 0 0 11.067 11.767c4.658 2.972 9.337 10.852 14.836 11.13 5.541.28 11.86-7.153 16.914-9.41a31.7 31.7 0 0 0 12.671-10.327 33.5 33.5 0 0 0 5.952-14.864c.781-5.492.417-11.155-1.458-16.404a34 34 0 0 0-1.695-3.943c-.54-1.064-2.124-1.456-3.116-.817a2.33 2.33 0 0 0-.817 3.117q.475.937.885 1.906l-.229-.544a30.8 30.8 0 0 1 2.088 7.755l-.082-.605c.377 2.891.37 5.82-.02 8.71l.082-.605a33.3 33.3 0 0 1-2.295 8.404l.23-.544a32 32 0 0 1-2.026 3.977 30 30 0 0 1-1.828 2.689c-.26.345.354-.451.086-.112l-.137.172a28.4 28.4 0 0 1-4.354 4.374c-.142.115-.283.235-.432.342.006-.004.48-.364.2-.155q-.133.098-.265.198-.883.654-1.814 1.242a31.5 31.5 0 0 1-4.481 2.343l.544-.23a33.1 33.1 0 0 1-8.38 2.293l.605-.081c-2.88.389-5.8.394-8.682.015l.606.082a30.3 30.3 0 0 1-7.621-2.061l.544.23a28.5 28.5 0 0 1-5.952-3.413l-.26-.196c-.278-.21.2.155.204.157a6 6 0 0 1-.466-.372 31 31 0 0 1-4.777-4.871c-.102-.13-.287-.392.123.16l-.165-.216a32.6 32.6 0 0 1-4.029-7.01l.229.545a32.4 32.4 0 0 1-2.229-8.15l.082.605a29.7 29.7 0 0 1-.015-7.785l-.081.605a28.8 28.8 0 0 1 2.002-7.275l-.229.544a31 31 0 0 1 2.185-4.208 32 32 0 0 1 1.652-2.403c.098-.13.369-.454-.093.118l.133-.17a32.5 32.5 0 0 1 5.427-5.414l.17-.133c-.606.482-.168.131-.031.028a31.5 31.5 0 0 1 6.627-3.817l-.544.229c2.357-.989 12.798-3.325 14.697-3.07l-.606-.081a32.2 32.2 0 0 1 8.114 2.242l-.544-.23a34 34 0 0 1 3.827 1.922 33 33 0 0 1 3.052 2.025l.225.169c.316.237-.434-.343-.103-.081a34 34 0 0 1 3.148 2.81 32 32 0 0 1 2.09 2.354c.111.139.488.639.026.026q.17.224.338.449a30 30 0 0 1 2.549 4.112c.544 1.062 2.122 1.458 3.116.817a2.33 2.33 0 0 0 .817-3.117m-128.954 18.202a3.34 3.34 0 1 0 0-6.68 3.34 3.34 0 1 0 0 6.68m40.085 36.442a3.341 3.341 0 1 0 0-6.682 3.341 3.341 0 0 0 0 6.682m152.145 0a3.34 3.34 0 1 0 0-6.68 3.34 3.34 0 0 0 0 6.68m8.198-42.515a3.341 3.341 0 1 0 0-6.682 3.341 3.341 0 0 0 0 6.682m-9.717-30.975a3.34 3.34 0 1 0 0-6.68 3.34 3.34 0 0 0 0 6.68M166.24 272.141a3.324 3.324 0 0 1-6.635.314 3.33 3.33 0 0 1 .69-2.37 3.33 3.33 0 0 1 4.535-.669 3.33 3.33 0 0 1 1.41 2.725m-9.415-30.975a3.327 3.327 0 0 1-3.167 3.314 3.327 3.327 0 0 1-2.777-5.37 3.33 3.33 0 0 1 4.535-.669 3.33 3.33 0 0 1 1.409 2.725m111.148 41.604a3.34 3.34 0 1 0 0-6.681 3.341 3.341 0 0 0 0 6.681"/></svg>