<svg xmlns="http://www.w3.org/2000/svg" width="283" height="229" fill="none"><path fill="#004D61" d="M161.219 201.858c-1.956-2.74-4.605-4.745-7.936-5.495-2.904-.655-5.89-.543-8.842-.52l-37.327.287c-3.197.025-6.262 2.795-6.113 6.114.147 3.291 2.686 6.14 6.113 6.113l32.802-.253c2.578-.02 5.158-.066 7.735-.058.579.002 1.156.033 1.734.039.14.002.241.001.313-.002l.056.017c.302.082.611.139.915.218-.106.003.197.192.349.257q.03.06.14.227c.104.195.412.786.424.768a27 27 0 0 1 1.141 3.589c.711 2.692.867 3.255.969 5.781.13 3.192 2.72 6.266 6.114 6.114 3.201-.144 6.252-2.691 6.113-6.114-.234-5.767-1.246-12.245-4.7-17.082"/><path fill="#004D61" d="M109.308 215.654c-.701-4.249-1.389-8.5-2.103-12.746-.726-4.308-2.207-8.253-5.559-11.08-.896-.755-1.824-1.46-2.757-2.164a70 70 0 0 1-.98-.747l-.048-.037-.136-.116a59 59 0 0 1-4.033-3.73 57 57 0 0 1-4.047-4.604l-.434-.557c-.144-.199-.407-.557-.451-.62a59.66 59.66 0 0 1-6.32-11.445l-.144-.393a80 80 0 0 1-.825-2.345 57.6 57.6 0 0 1-2.174-8.99l-.12-.823c-.03-.272-.086-.753-.093-.828a60.3 60.3 0 0 1 .083-12.794l.017-.156.024-.159q.122-.834.266-1.665a61 61 0 0 1 2.331-9.12q.217-.634.448-1.266c-.01.027.452-1.152.458-1.192 1.832-4.328 4.829-8.275 4.833-13.192.003-3.329-2.814-6.518-6.113-6.364a6.354 6.354 0 0 0-6.114 6.364v.201l-.08.266c-.357.777-.795 1.514-1.187 2.272-1.074 2.072-1.99 4.212-2.861 6.384a61 61 0 0 0-3.26 10.938 69.6 69.6 0 0 0-.369 24.851c2.37 14.448 10.187 28.278 21.054 37.574a86 86 0 0 0 4.104 3.285c.193.145.994.777.642.471.757.646 1.076.972 1.27 1.448l.12.462a31 31 0 0 1 .375 1.618c.946 4.757 1.603 9.594 2.393 14.383.543 3.29 4.594 5.431 7.52 4.445 3.407-1.148 4.852-4.304 4.27-7.829"/><path fill="#3F3D56" d="M161.838 227.993a9.693 9.693 0 0 1-9.721-9.647v-6.974c-7.301.817-32.302.628-39.469-.523v7.218a9.72 9.72 0 0 1-9.72 9.647 9.72 9.72 0 0 1-9.72-9.647v-14.172a62.4 62.4 0 0 1-32.095-54.405c0-19.039 8.628-36.8 23.673-48.729a62.7 62.7 0 0 1 34.129-13.439 65 65 0 0 1 5.058-.2c5.866 0 32.332.906 38.972 2.817l15.141-15.024a1.59 1.59 0 0 1 1.739-.347 1.57 1.57 0 0 1 .987 1.47v2.389l2.948-2.92a1.59 1.59 0 0 1 1.738-.347 1.568 1.568 0 0 1 .988 1.47v26.694a62.187 62.187 0 0 1-14.928 102.348v12.674a9.696 9.696 0 0 1-9.72 9.647m-8.956-17.488v7.841a8.954 8.954 0 0 0 15.263 6.285 8.96 8.96 0 0 0 2.649-6.285v-13.157l.218-.103a62.07 62.07 0 0 0 25.42-22.23 61.26 61.26 0 0 0-10.583-79.077l-.127-.114V76.63a.8.8 0 0 0-.513-.762.82.82 0 0 0-.91.18l-4.251 4.211v-4.221a.8.8 0 0 0-.513-.763.82.82 0 0 0-.911.182l-15.466 15.346-.219-.069c-6.173-1.932-33.056-2.848-38.966-2.848a64 64 0 0 0-4.998.198 61.92 61.92 0 0 0-33.714 13.276c-14.861 11.783-23.385 29.325-23.385 48.13a61.63 61.63 0 0 0 31.899 53.845l.197.11v14.622a8.958 8.958 0 0 0 15.263 6.285 8.96 8.96 0 0 0 2.649-6.285v-8.133l.453.085c6.44 1.212 33.559 1.403 40.113.543z"/><path fill="#E6E6E6" d="M110.038 45.513 67.726 58.23a5.304 5.304 0 0 0 3.053 10.16l37.028-11.13.776-.234a25.8 25.8 0 0 1 3.167-11.409 2.4 2.4 0 0 0-.764-.198 2.4 2.4 0 0 0-.948.095"/><path fill="#2F2E41" d="M70.048 71.1a2.68 2.68 0 0 1-2.537-1.835l-2.646-7.984a2.675 2.675 0 0 1 1.698-3.38l34.438-11.413a2.674 2.674 0 0 1 3.38 1.697l2.646 7.984a2.666 2.666 0 0 1-1.698 3.38L70.892 70.963c-.273.091-.558.137-.844.138"/><path fill="#3F3D56" d="M134.542 31.334a26.755 26.755 0 0 0-26.746 26.746 26.744 26.744 0 0 0 45.658 18.912 26.75 26.75 0 0 0 5.798-29.147 26.75 26.75 0 0 0-24.71-16.511m0 52.728a26.01 26.01 0 0 1-25.959-27.037 25.98 25.98 0 0 1 44.7-16.938 26 26 0 0 1 6.816 13.314 25.99 25.99 0 0 1-11.233 26.356 26 26 0 0 1-14.324 4.305"/><path fill="#E6E6E6" d="M157.085 58.08a22.542 22.542 0 1 1-45.084 0 22.542 22.542 0 0 1 45.084 0"/><path fill="#004D61" d="M141.255 59.578a5.4 5.4 0 0 0-2.09-1.655 20.3 20.3 0 0 0-3.141-1.031v-6.137a8.94 8.94 0 0 1 4.467 2.037l1.245-2.656a8.2 8.2 0 0 0-2.43-1.501c-.988-.4-2.025-.666-3.083-.791v-3.11h-2.885v3.14a7.9 7.9 0 0 0-3.152 1.059 6.26 6.26 0 0 0-2.136 2.094 5.26 5.26 0 0 0-.76 2.785 4.76 4.76 0 0 0 .875 2.98 5.54 5.54 0 0 0 2.177 1.727c1.034.442 2.102.796 3.195 1.059v5.88a9.55 9.55 0 0 1-5.315-2.12l-1.246 2.659a9.4 9.4 0 0 0 2.843 1.612c1.134.406 2.318.653 3.519.734v3.083h2.885v-3.14a7.47 7.47 0 0 0 4.283-1.965 5.2 5.2 0 0 0 1.597-3.859 4.6 4.6 0 0 0-.848-2.884m-7.718-3.336a5.5 5.5 0 0 1-1.922-1.032 2.02 2.02 0 0 1-.68-1.597 2.57 2.57 0 0 1 .695-1.837 3.5 3.5 0 0 1 1.907-.99zm4.298 8.13c-.487.5-1.122.832-1.811.945v-5.06a5.05 5.05 0 0 1 1.811.906 1.78 1.78 0 0 1 .623 1.414 2.6 2.6 0 0 1-.623 1.796"/><path fill="#2F2E41" d="M71.275 103.458a2.685 2.685 0 0 1-2.588-1.993l-1.44-5.452a2.676 2.676 0 0 1 1.9-3.268l45.446-12.008a2.68 2.68 0 0 1 3.267 1.904l1.22 4.62-.228.017a61.2 61.2 0 0 0-32.137 12.178l-.066.032-14.695 3.882a2.7 2.7 0 0 1-.679.088"/><path fill="#3F3D56" d="M63.749 130.39a37.5 37.5 0 0 1-14.948-5.652 36.5 36.5 0 0 1-6.18-5.055c-1.845-1.881-3.61-4.02-4.523-6.525a9.67 9.67 0 0 1 .127-7.172 9.3 9.3 0 0 1 5.031-5.015c2.289-.912 5.054-1.01 7.28-.011a6.54 6.54 0 0 1 2.662 2.142c.316.433.551.919.692 1.436.13.469.142.962.034 1.437a3.45 3.45 0 0 1-1.824 2.186c-.973.5-2.028.821-3.115.95-1.093.149-2.662.285-3.54-.592a1.8 1.8 0 0 1-.418-.616 1.2 1.2 0 0 1-.066-.557c-.013.083.053-.18.049-.17-.014.039-.074.134.012-.012a1 1 0 0 1 .089-.139c-.03.038-.093.101.02-.007a.75.75 0 0 1 .35-.216q.08-.021.16-.042c.134-.037-.135.002.003-.002q.08-.001.16-.003c.135-.006-.133-.037-.004-.004q.075.018.15.04c.108.034-.076-.079-.003.006.085.099-.09-.096.007-.001q.073.072.137.151a.9.9 0 0 0 1.267 0 .915.915 0 0 0 0-1.266c-.884-1.095-2.628-.825-3.521.101-1.14 1.18-.689 3.05.42 4.079 1.254 1.166 3.031 1.247 4.645 1.052a11.4 11.4 0 0 0 3.924-1.109 5.5 5.5 0 0 0 2.684-2.9 5.03 5.03 0 0 0-.404-4.114c-1.425-2.679-4.376-4.053-7.292-4.29a11.4 11.4 0 0 0-8.336 2.736 11.52 11.52 0 0 0-3.779 7.671c-.254 3.055.931 6.022 2.66 8.488a32.3 32.3 0 0 0 6.41 6.63 39.16 39.16 0 0 0 16.358 7.715q1.068.22 2.146.377a.924.924 0 0 0 1.101-.626.9.9 0 0 0-.625-1.101"/><path fill="#CCC" d="M149.101 91.464q-11.716-.165-23.358.595c-2.653.173-4.948 1.11-4.948 2.687 0 1.318 2.277 2.861 4.948 2.687a295 295 0 0 1 23.358-.595c6.371.09 6.367-5.284 0-5.374"/><path fill="#3F3D56" d="M137.557 96.572c-.844 0-20.673-.032-20.673-2.77 0-2.74 19.829-2.771 20.673-2.771s20.673.031 20.673 2.77c0 2.74-19.829 2.77-20.673 2.77m-19.898-2.77c.543.83 7.832 2.006 19.898 2.006s19.355-1.176 19.897-2.007c-.542-.83-7.831-2.006-19.897-2.006s-19.355 1.176-19.898 2.006"/><path fill="#2F2E41" d="M77.747 115.672a2.68 2.68 0 0 1-2.638-2.261l-.873-5.572a2.68 2.68 0 0 1 2.229-3.056l46.435-7.276a2.677 2.677 0 0 1 3.057 2.228l.872 5.572a2.67 2.67 0 0 1-.482 1.989 2.67 2.67 0 0 1-1.746 1.067l-46.435 7.276a3 3 0 0 1-.419.033"/><path fill="#E6E6E6" d="M58.53 50.38c10.762 0 19.486-8.725 19.486-19.487S69.292 11.407 58.53 11.407s-19.486 8.724-19.486 19.486S47.768 50.38 58.53 50.38"/><path fill="#2F2E41" d="M69.563 35.935a4.6 4.6 0 0 0 1.668-1.022 3.1 3.1 0 0 0 .862-2.477 2.09 2.09 0 0 0-.96-1.591c-.705-.434-1.637-.418-2.578.019l-.108-7.607-.764.011.127 8.942.582-.381c.674-.442 1.644-.762 2.34-.333a1.34 1.34 0 0 1 .602 1.027 2.35 2.35 0 0 1-.64 1.847c-.83.822-2.055 1.098-3.454 1.35l.135.751a12.6 12.6 0 0 0 2.188-.536M76.315 22.723l-4.069.616.114.756 4.07-.616zM63.47 24.668l-4.069.616.115.756 4.07-.617zM71.408 115.331a3.45 3.45 0 0 1-3.223-2.237l-13.436-35.98a17.78 17.78 0 0 1 10.425-22.85l10.925-4.08a3.42 3.42 0 0 1 2.628.092 3.37 3.37 0 0 1 1.786 1.905l24.888 46.99c.162.424.238.875.224 1.329a3.441 3.441 0 0 1-2.232 3.118l-30.784 11.495a3.4 3.4 0 0 1-1.201.218"/><path fill="#E6E6E6" d="m72.785 51.422 24.693 33.022L80.77 51.77a3.087 3.087 0 0 0-3.954-1.852z"/><path fill="#E6E6E6" d="m111.884 76.5-44.09-2.84a5.304 5.304 0 0 1 .68-10.584l44.092 2.84a2.487 2.487 0 0 1 2.319 2.638l-.363 5.627a2.48 2.48 0 0 1-2.638 2.32"/><path fill="#2F2E41" d="M100.102 78.321q-.087 0-.175-.006l-36.205-2.332a2.673 2.673 0 0 1-2.497-2.84l.62-9.613a2.675 2.675 0 0 1 2.84-2.497l36.205 2.332a2.676 2.676 0 0 1 2.497 2.84l-.619 9.613a2.68 2.68 0 0 1-2.666 2.503M58.307 17.935c2.563-2.204 6.084-.232 9.023-.577 2.813-.33 5.034-2.854 5.601-5.534.662-3.127-.961-6.26-3.353-8.21-2.62-2.135-6.095-2.748-9.388-2.353-3.774.453-7.226 2.212-10.323 4.34a46.6 46.6 0 0 0-8.193 6.943c-2.197 2.426-4.059 5.32-4.653 8.585-.54 2.968-.128 6.256 1.627 8.77a9.25 9.25 0 0 0 3.62 2.983c1.504.739 3.109 1.267 4.566 2.102 2.204 1.263 4.346 3.882 3.655 6.607a3.74 3.74 0 0 1-.85 1.6c-.493.548-1.383-.175-.888-.724.868-.964.834-2.25.371-3.4a6.22 6.22 0 0 0-2.764-3.04c-1.525-.872-3.21-1.41-4.773-2.205a10.3 10.3 0 0 1-3.787-3.139c-1.872-2.6-2.432-5.985-2.007-9.117.459-3.388 2.2-6.467 4.382-9.048 2.375-2.808 5.293-5.185 8.273-7.32C51.646 2.907 55.179.969 59.088.268c3.389-.607 7.062-.233 10.026 1.614 2.766 1.724 4.888 4.69 5.099 8.004a8.5 8.5 0 0 1-3.965 7.62 7.3 7.3 0 0 1-4.36 1.01c-1.628-.105-3.258-.603-4.896-.465a3.4 3.4 0 0 0-2.013.813c-.56.482-1.228-.45-.672-.929"/><path fill="#3F3D56" d="M282.545 228.172H.454a.46.46 0 0 1-.454-.455.453.453 0 0 1 .454-.455h282.091a.457.457 0 0 1 .455.455.457.457 0 0 1-.455.455"/><path stroke="#3F3D56" stroke-width=".75" d="m206 138.5 6.638-.603A4 4 0 0 1 217 141.88v11.827a4 4 0 0 1-4.716 3.936L206 156.5"/></svg>