<svg xmlns="http://www.w3.org/2000/svg" width="446" height="381" fill="none"><g clip-path="url(#a)"><path fill="#fff" d="M377.454 268.447H0V0h377.454z"/><path fill="#47A138" d="M30.747 110.256a3.68 3.68 0 0 0-3.678 3.682 3.678 3.678 0 0 0 3.678 3.682h127.467a3.67 3.67 0 0 0 2.596-1.081 3.685 3.685 0 0 0 0-5.202 3.67 3.67 0 0 0-2.596-1.081zM30.747 132.349a3.676 3.676 0 0 0-3.686 3.674 3.684 3.684 0 0 0 3.67 3.69h127.577a3.68 3.68 0 0 0 3.678-3.682 3.68 3.68 0 0 0-3.678-3.682zM30.747 154.126a3.676 3.676 0 0 0-3.686 3.674 3.684 3.684 0 0 0 3.67 3.69H59.44a3.677 3.677 0 0 0 3.678-3.682 3.677 3.677 0 0 0-3.678-3.682z"/><path fill="#E5E5E5" d="M377.454 268.447H0V0h377.454zm-371.25-6.212H371.25V6.212H6.205z"/><path fill="#E4E4E4" d="M258.687 209.461a6.6 6.6 0 0 0-4.679 1.932 6.63 6.63 0 0 0-.02 9.363 6.6 6.6 0 0 0 4.671 1.952h63.169a6.61 6.61 0 0 0 6.118-4.087 6.65 6.65 0 0 0 0-5.073 6.62 6.62 0 0 0-6.118-4.087zM258.687 129.25a6.6 6.6 0 0 0-4.679 1.932 6.63 6.63 0 0 0-.02 9.363 6.6 6.6 0 0 0 4.671 1.952h63.169a6.61 6.61 0 0 0 6.118-4.087 6.65 6.65 0 0 0 0-5.073 6.62 6.62 0 0 0-6.118-4.087zM30.747 212.528a3.68 3.68 0 0 0-3.403 2.266 3.69 3.69 0 0 0 .789 4.015 3.69 3.69 0 0 0 2.598 1.084h127.577a3.676 3.676 0 0 0 3.678-3.682 3.676 3.676 0 0 0-3.678-3.683zM30.747 234.306a3.676 3.676 0 0 0-3.686 3.674 3.685 3.685 0 0 0 2.264 3.407c.445.186.923.282 1.406.283H59.44a3.677 3.677 0 0 0 3.678-3.682 3.677 3.677 0 0 0-3.678-3.682zM30.747 190.436c-.976 0-1.911.387-2.6 1.078a3.685 3.685 0 0 0 0 5.207 3.67 3.67 0 0 0 2.6 1.079h127.467a3.677 3.677 0 0 0 3.671-3.682c0-.976-.387-1.911-1.075-2.602a3.67 3.67 0 0 0-2.596-1.08zM30.747 30.076a3.684 3.684 0 0 0 0 7.364h127.467a3.68 3.68 0 0 0 2.596-1.08 3.686 3.686 0 0 0 0-5.203 3.68 3.68 0 0 0-2.596-1.08zM30.747 52.17a3.67 3.67 0 0 0-3.403 2.266 3.687 3.687 0 0 0 1.98 4.815c.446.186.924.282 1.407.283h127.577a3.67 3.67 0 0 0 2.601-1.078 3.7 3.7 0 0 0 1.077-2.604 3.683 3.683 0 0 0-3.678-3.682zM30.747 73.946a3.68 3.68 0 0 0-2.603 1.073 3.684 3.684 0 0 0 2.587 6.292H59.44a3.676 3.676 0 0 0 3.678-3.683c0-.976-.388-1.913-1.078-2.603a3.68 3.68 0 0 0-2.6-1.079zM258.687 49.102a6.6 6.6 0 0 0-4.679 1.931 6.63 6.63 0 0 0-.02 9.364 6.6 6.6 0 0 0 4.671 1.952h63.169a6.6 6.6 0 0 0 4.682-1.938 6.627 6.627 0 0 0-4.682-11.31z"/><path fill="#CACACA" d="M271.995 67.541c6.552 0 11.864-5.318 11.864-11.878s-5.312-11.879-11.864-11.879-11.865 5.318-11.865 11.879c0 6.56 5.312 11.878 11.865 11.878"/><path stroke="#000" d="M293.226 138.814v-.003a6.12 6.12 0 0 1 2.059-3.829 6.105 6.105 0 0 1 8.118.102 6.12 6.12 0 0 1 1.961 3.88l.01.085.037.078 8.889 18.584-8.206 1.608-6.136-13.303-.14-.303-.334.013a6.075 6.075 0 0 1-6.044-4.284 6.1 6.1 0 0 1-.214-2.628Z"/><path fill="#3F3D56" d="m356.554 190.441-25.705-12.731-18.139-30.822-12.679 6.14 16.454 35.607 41.567 24.024z"/><path stroke="#000" d="m298.022 349.824-.001 22.327-7.157-.001-3.68-22.327z"/><path fill="#2F2E41" d="m300.581 380.493-26.055-.001v-.33a10.16 10.16 0 0 1 2.971-7.179 10.13 10.13 0 0 1 7.17-2.974h15.915z"/><path stroke="#000" d="m378.474 357.822-4.994 5.133-18.542-12.938 7.562-7.773z"/><path fill="#2F2E41" d="m386.23 361.805-18.18 18.688-.236-.23a10.16 10.16 0 0 1-3.064-7.14 10.16 10.16 0 0 1 2.875-7.219l11.104-11.414zM308.511 233.825h-5.589a156.4 156.4 0 0 0-32.576 55.018l-6.676 19.572 23.796 49.883 14.848.265-16.971-52.959 17.098-22.701.862 45.634 55.031 28.88 11.014-16.29-44.78-24.516 7.626-38.816s15.343-12.81 6.408-32.837z"/><path fill="#3F3D56" d="m382.068 183.026-23.225-10.184-25.562 11.341s-7.238 4.122-2.625 14.681l-27.734 34.961s.051.014 34.907 11.133l31.447-27.728a38.77 38.77 0 0 0 10.672-15.499 38.8 38.8 0 0 0 2.12-18.705"/><path fill="#47A138" d="M378.17 172.541c8.941 0 16.189-7.256 16.189-16.208s-7.248-16.208-16.189-16.208-16.189 7.257-16.189 16.208c0 8.952 7.248 16.208 16.189 16.208"/><path fill="#2F2E41" d="M399.136 134.824c-3.716-3.027-9.478-3.687-13.314-.816-6.689-3.515-15.729-1.681-20.525 4.164-1.726 2.103-2.948 4.948-2.094 7.532.854 2.585 4.536 4.104 6.455 2.176l-.034.794a12.87 12.87 0 0 1 2.978 13.503 12.86 12.86 0 0 1-4.26 5.803 12.83 12.83 0 0 1-6.707 2.602l15.915 6.437c2.232.903 4.535 1.82 6.942 1.808s4.974-1.184 5.908-3.405l2.015 6.183a102 102 0 0 0 9.699-20.019c1.606-4.518 2.904-9.242 2.731-14.034s-1.994-9.702-5.709-12.728"/><path fill="#CACACA" d="M271.995 227.899c6.552 0 11.864-5.318 11.864-11.878s-5.312-11.878-11.864-11.878-11.865 5.318-11.865 11.878 5.312 11.878 11.865 11.878"/><path fill="#47A138" d="M308.905 147.752c6.553 0 11.865-5.318 11.865-11.878s-5.312-11.879-11.865-11.879c-6.552 0-11.864 5.318-11.864 11.879 0 6.56 5.312 11.878 11.864 11.878"/><path stroke="#000" d="M309.704 132.215v-.003a6.13 6.13 0 0 1 2.059-3.829 6.105 6.105 0 0 1 8.118.103 6.12 6.12 0 0 1 1.962 3.879l.009.086.037.077 8.889 18.584-8.206 1.609-6.136-13.304-.14-.303-.334.013a6.073 6.073 0 0 1-6.044-4.284 6.1 6.1 0 0 1-.214-2.628Z"/><path fill="#3F3D56" d="m373.032 183.841-25.705-12.73-18.139-30.823-12.679 6.141 16.454 35.607 41.567 24.024z"/><path fill="#CACACA" d="M433.368 381H182.242a.66.66 0 0 1 0-1.319h251.126a.66.66 0 0 1 .659.66.66.66 0 0 1-.659.659"/></g><defs><clipPath id="a"><path fill="#fff" d="M0 0h446v381H0z"/></clipPath></defs></svg>