<svg xmlns="http://www.w3.org/2000/svg" width="146" height="32" fill="none"><path fill="#47A138" d="m33.149 26.206 2.728-19.497q2.28-.228 6.356-.227 3.573 0 4.95 1.131c.916.753 1.238 2.111.954 4.068q-.31 2.12-1.208 3.164-.9 1.047-2.673 1.213l-.028.141q3.883.31 3.15 5.258-.452 2.94-1.914 3.954-1.463 1.017-4.836 1.018-4.919.005-7.479-.223m3.067-2.201 3.994.027q2.305 0 3.235-.663.93-.665 1.208-2.613c.188-1.393.04-2.332-.435-2.813-.48-.482-1.475-.73-2.995-.75h-4.049zm1.266-8.989h3.882q2.023-.001 2.912-.677.887-.676 1.167-2.545.252-1.778-.451-2.345-.704-.563-2.896-.564h-3.768zm22.895-2.599h2.84q-1.518 6.726-3.966 11.389-2.194 4.182-4.347 5.935-2.151 1.753-5.134 2.26l-.507-1.95c1.202-.283 2.249-.706 3.15-1.273q1.35-.847 2.587-2.572h-1.267q-.647 0-1.095-.354-.453-.351-.561-.977l-2.643-12.461h2.872l2.081 11.161q.083.481.561.482h1.38c.075-.13.178-.327.308-.578l.253-.495q2.475-5.168 3.488-10.567m8.437 2.118-1.099 7.744c-.092.66-.034 1.107.182 1.341q.322.355 1.307.354h2.054l.113 2.118q-1.237.368-3.207.368-1.828 0-2.63-1.018-.802-1.016-.547-2.909l1.126-7.998h-2.502l.254-1.977 2.56-.141.592-4.04h2.673l-.561 4.04h4.22l-.28 2.118zM84.65 23.92l.168 1.835q-1.998.79-5.654.791-3.516.001-4.867-1.85-1.349-1.85-.845-5.749.533-3.984 2.18-5.44 1.644-1.454 5.415-1.454 3.207.001 4.36 1.13t.846 3.336q-.338 2.008-1.575 2.896-1.238.892-3.796 1.086l-4.754.423q-.029 1.95.815 2.641.843.69 2.642.691 1.914.002 5.066-.337Zm-8.354-5.032 4.586-.422q1.296-.085 1.886-.55.59-.466.76-1.627.168-1.325-.435-1.64-.605-.31-2.46-.31-2.138 0-3.023.89-.893.889-1.314 3.66ZM92.554 6.427l-.76 5.708c-.168 1.245-.414 2.297-.733 3.164q1.35-1.357 2.968-2.29 1.618-.934 2.995-.933 1.634 0 2.502.61.871.608 1.239 2.258.364 1.652-.113 4.536-.307 2.316-.873 3.772-.563 1.456-1.461 2.163-.9.705-1.828.932-.93.227-2.39.227-3.428 0-6.92-1.018l2.673-19.13h2.7Zm-1.547 11.02-.928 6.782q2.023.084 3.009.086 2.672.002 3.515-.864.842-.861 1.294-4.167.394-3.08.085-3.958-.308-.877-1.602-.877c-1.331.004-3.121 1-5.373 2.999Zm23.206 8.759h-2.139l.113-2.545q-2.474 2.883-5.908 2.882-2.504 0-3.375-1.64-.873-1.642-.308-5.764.307-2.29.873-3.744.564-1.456 1.492-2.163.928-.708 1.914-.946.984-.239 2.532-.24 3.349 0 6.723.735zm-2.054-4.973.986-6.839q-2.587-.056-2.896-.055-1.461 0-2.221.141a2.47 2.47 0 0 0-1.335.722q-.576.578-.845 1.482c-.178.602-.353 1.49-.521 2.655q-.393 3.081-.099 3.954.296.877 1.619.877 1.293 0 2.533-.722c.818-.475 1.749-1.214 2.779-2.215m9.142-8.816-.14 2.968q3.713-3.334 6.496-3.336 1.745 0 2.643 1.004.898 1.006.619 2.868l-1.461 10.285h-2.701l1.321-9.608q.169-1.298-.099-1.767-.268-.466-1.167-.468c-.77 0-1.571.238-2.406.705q-1.252.707-3.276 2.318l-1.208 8.817h-2.728l1.941-13.79h2.166zm21.601 0h2.786q-1.181 3.702-4.556 6.131.42.65.846 1.64l2.673 6.018h-2.926l-2.643-6.358q-1.266.68-3.262 1.582l-.701 4.776h-2.701l2.756-19.78h2.727l-1.239 9.268a16 16 0 0 1-.9 3.39q2.671-1.272 4.628-2.98 1.947-1.709 2.512-3.687M20.167 6.537H6.69v13.538h13.476zM6.647 0H.092v6.492h6.555zM26.58 0h-6.46v6.492h6.462V0Z"/><path fill="#47A138" d="m33.149 26.206 2.728-19.497q2.28-.228 6.356-.227 3.573 0 4.95 1.131c.916.753 1.238 2.111.954 4.068q-.31 2.12-1.208 3.164-.9 1.047-2.673 1.213l-.028.141q3.883.31 3.15 5.258-.452 2.94-1.914 3.954-1.463 1.017-4.836 1.018-4.919.005-7.479-.223m3.067-2.201 3.994.027q2.305 0 3.235-.663.93-.665 1.208-2.613c.188-1.393.04-2.332-.435-2.813-.48-.482-1.475-.73-2.995-.75h-4.049zm1.266-8.989h3.882q2.023-.001 2.912-.677.887-.676 1.167-2.545.252-1.778-.451-2.345-.704-.563-2.896-.564h-3.768zm22.895-2.599h2.84q-1.518 6.726-3.966 11.389-2.194 4.182-4.347 5.935-2.151 1.753-5.134 2.26l-.507-1.95c1.202-.283 2.249-.706 3.15-1.273q1.35-.847 2.587-2.572h-1.267q-.647 0-1.095-.354-.453-.351-.561-.977l-2.643-12.461h2.872l2.081 11.161q.083.481.561.482h1.38c.075-.13.178-.327.308-.578l.253-.495q2.475-5.168 3.488-10.567m8.437 2.118-1.099 7.744c-.092.66-.034 1.107.182 1.341q.322.355 1.307.354h2.054l.113 2.118q-1.237.368-3.207.368-1.828 0-2.63-1.018-.802-1.016-.547-2.909l1.126-7.998h-2.502l.254-1.977 2.56-.141.592-4.04h2.673l-.561 4.04h4.22l-.28 2.118zM84.65 23.92l.168 1.835q-1.998.79-5.654.791-3.516.001-4.867-1.85-1.349-1.85-.845-5.749.533-3.984 2.18-5.44 1.644-1.454 5.415-1.454 3.207.001 4.36 1.13t.846 3.336q-.338 2.008-1.575 2.896-1.238.892-3.796 1.086l-4.754.423q-.029 1.95.815 2.641.843.69 2.642.691 1.914.002 5.066-.337Zm-8.354-5.032 4.586-.422q1.296-.085 1.886-.55.59-.466.76-1.627.168-1.325-.435-1.64-.605-.31-2.46-.31-2.138 0-3.023.89-.893.889-1.314 3.66ZM92.554 6.427l-.76 5.708c-.168 1.245-.414 2.297-.733 3.164q1.35-1.357 2.968-2.29 1.618-.934 2.995-.933 1.634 0 2.502.61.871.608 1.239 2.258.364 1.652-.113 4.536-.307 2.316-.873 3.772-.563 1.456-1.461 2.163-.9.705-1.828.932-.93.227-2.39.227-3.428 0-6.92-1.018l2.673-19.13h2.7Zm-1.547 11.02-.928 6.782q2.023.084 3.009.086 2.672.002 3.515-.864.842-.861 1.294-4.167.394-3.08.085-3.958-.308-.877-1.602-.877c-1.331.004-3.121 1-5.373 2.999Zm23.206 8.759h-2.139l.113-2.545q-2.474 2.883-5.908 2.882-2.504 0-3.375-1.64-.873-1.642-.308-5.764.307-2.29.873-3.744.564-1.456 1.492-2.163.928-.708 1.914-.946.984-.239 2.532-.24 3.349 0 6.723.735zm-2.054-4.973.986-6.839q-2.587-.056-2.896-.055-1.461 0-2.221.141a2.47 2.47 0 0 0-1.335.722q-.576.578-.845 1.482c-.178.602-.353 1.49-.521 2.655q-.393 3.081-.099 3.954.296.877 1.619.877 1.293 0 2.533-.722c.818-.475 1.749-1.214 2.779-2.215m9.142-8.816-.14 2.968q3.713-3.334 6.496-3.336 1.745 0 2.643 1.004.898 1.006.619 2.868l-1.461 10.285h-2.701l1.321-9.608q.169-1.298-.099-1.767-.268-.466-1.167-.468c-.77 0-1.571.238-2.406.705q-1.252.707-3.276 2.318l-1.208 8.817h-2.728l1.941-13.79h2.166zm21.601 0h2.786q-1.181 3.702-4.556 6.131.42.65.846 1.64l2.673 6.018h-2.926l-2.643-6.358q-1.266.68-3.262 1.582l-.701 4.776h-2.701l2.756-19.78h2.727l-1.239 9.268a16 16 0 0 1-.9 3.39q2.671-1.272 4.628-2.98 1.947-1.709 2.512-3.687M13.475 20.03H0v6.77h13.475z"/><path fill="#47A138" d="M20.167 6.537H6.69v13.538h13.476zM6.647 0H.092v6.492h6.555zM26.58 0h-6.46v6.492h6.462V0Z"/></svg>