<svg xmlns="http://www.w3.org/2000/svg" width="662" height="413" fill="none"><g fill="#D9D9D9" opacity=".3"><path d="M131.738 161.27v-39.318H92.42v39.318z"/><path fill-opacity=".5" d="M131.738 121.952V82.634H92.42v39.318z"/><path fill-opacity=".9" d="M92.42 121.952V82.634H53.104v39.318zm39.318-39.317V43.317H92.42v39.318z"/><path fill-opacity=".5" d="M131.738 43.317V4H92.42v39.318z"/><path fill-opacity=".9" d="M171.056 43.317V4h-39.318v39.318zM55.318 161.27v-39.318H16v39.318z"/></g><g fill="#D9D9D9" opacity=".3"><path d="M621.738 412.27v-39.318H582.42v39.318z"/><path fill-opacity=".5" d="M621.738 372.952v-39.318H582.42v39.318z"/><path fill-opacity=".9" d="M582.421 372.952v-39.318h-39.318v39.318z"/><path fill-opacity=".9" d="M621.738 333.635v-39.318H582.42v39.318z"/><path fill-opacity=".5" d="M621.738 294.318V255H582.42v39.318z"/><path fill-opacity=".9" d="M661.055 294.318V255h-39.318v39.318zM545.317 412.27v-39.318h-39.318v39.318z"/></g><path stroke="#FF5031" d="m344.974 333.266 21.247-5.7c-.501 6.472-1.854 12.544-4.473 17.55-6.147 11.749-13.742 17.773-21.886 19.78-8.159 2.01-16.971.015-25.59-4.495s-15.283-10.61-18.284-18.458c-2.995-7.835-2.377-17.51 3.769-29.258 3.048-5.827 8.256-11.068 14.392-15.656 6.132-4.585 13.161-8.498 19.817-11.678 6.655-3.18 12.925-5.623 17.532-7.27a169 169 0 0 1 5.499-1.867c.655-.21 1.166-.367 1.513-.473l.064-.019.172.539c.207.653.503 1.611.86 2.829.713 2.436 1.67 5.91 2.642 10.058 1.928 8.229 3.909 19.095 4.174 29.779l-21.839 13.43z"/><path fill="#fff" stroke="#FF5031" d="M316.467 360.251c8.255-5.047 16.006-14.333 23.133-27.788l.001-.001.608-1.163h.001q3.608-6.967 6.979-15.347l.001-.004q.247-.594.478-1.206l.004-.008a181 181 0 0 0 1.557-4.029v-.001a265 265 0 0 0 5.261-15.544v-.002q.12-.385.234-.765l.144-.476c2.704-9.002 4.344-16.041 4.921-18.643l.001-.003q.082-.362.134-.607l-.019-.004-.008.003-.128-.027-.147-.03c-.419 1.932-2.094 9.344-5.051 19.127-.121.414-.246.837-.377 1.258v.001l-.478-.149c-1.814 5.916-4.079 12.635-6.794 19.486zm0 0-.081-.134-.003-.006-.07-.119c9.122-5.581 16.747-15.992 22.918-27.634.204-.376.415-.765.615-1.161z"/><path fill="#fff" stroke="#FF5031" d="M353.907 294.054c.428.172.855.328 1.269.478l.004.002a35.4 35.4 0 0 0 9.803 1.965l.056.31a35.5 35.5 0 0 1-9.904-1.974l-.003-.001a30 30 0 0 1-1.23-.455l-.002-.001a37 37 0 0 1-3.527-1.613 35.8 35.8 0 0 1-11.887-10.009l.281-.125a35.5 35.5 0 0 0 11.748 9.865 36 36 0 0 0 3.392 1.558Zm0 0 .185-.464zm13.508 24.295.005.308a35.8 35.8 0 0 1-19.557-2.972 49 49 0 0 1-1.205-.586l.001-.001-.01-.004c-.156-.075-.309-.155-.472-.24a35.98 35.98 0 0 1-18.9-26.523l.283-.155a35.67 35.67 0 0 0 18.757 26.408l.004.002c.115.06.247.13.38.191q.605.316 1.227.598a35.44 35.44 0 0 0 19.487 2.974Z"/><path fill="#fff" stroke="#FF5031" d="M340.459 331.99a35.66 35.66 0 0 0 25.975.741q-.03.17-.063.338a35.95 35.95 0 0 1-26.13-.832q-.622-.269-1.231-.564v-.001l-.012-.005a26 26 0 0 1-1.285-.636 36.06 36.06 0 0 1-18.866-37.586l.338-.227a35.77 35.77 0 0 0 18.669 37.543q.663.345 1.333.66l.001.001q.627.296 1.271.568Zm0 0-.001-.001.195-.46-.193.461zm26.616-.031q-.27.105-.542.204l.444.368a29 29 0 0 0 .098-.572Z"/><path stroke="#FF5031" d="m86.868 278.314.172-.539.064.019c.347.106.858.263 1.513.473 1.31.418 3.196 1.043 5.5 1.867 4.606 1.648 10.877 4.09 17.531 7.27 6.656 3.18 13.686 7.093 19.817 11.678 6.136 4.589 11.344 9.829 14.392 15.656 6.147 11.748 6.764 21.423 3.769 29.258-3 7.848-9.665 13.949-18.284 18.459s-17.431 6.505-25.59 4.494c-8.143-2.007-15.739-8.031-21.885-19.779-2.62-5.007-3.973-11.079-4.474-17.551l21.247 5.7.391-.909-21.84-13.43c.266-10.684 2.248-21.55 4.175-29.778a191 191 0 0 1 2.642-10.059c.357-1.217.653-2.176.86-2.829Z"/><path fill="#fff" stroke="#FF5031" d="m90.268 296.116.142.47q.116.385.237.774a266 266 0 0 0 5.27 15.574 183 183 0 0 0 1.561 4.04q.236.618.484 1.219 3.378 8.398 6.999 15.39m-14.693-37.467.479-.144v-.001m-.48.145.479-.146v.001m-.478.145c-2.709-9.018-4.352-16.069-4.93-18.68a44 44 0 0 1-.228-1.048l-.005-.025 6.315 20.681m-.674-1.073.144.474q.115.382.234.766v.003a265 265 0 0 0 5.26 15.544l.001.001q.766 2.053 1.558 4.029l.003.008q.232.612.478 1.206l.001.004q3.371 8.379 6.979 15.346v-.001l-.443.232m-14.215-37.612c-2.704-9.003-4.344-16.041-4.92-18.644l-.001-.002q-.082-.362-.135-.607l.02-.004.008.002.127-.026.147-.031c.42 1.932 2.094 9.345 5.05 19.127q.182.625.378 1.258m13.541 36.539.444-.23m-.444.23.611 1.167m-.167-1.397-13.507-36.456c1.815 5.916 4.079 12.635 6.794 19.486q.243.614.49 1.216c2.084 5.179 4.428 10.406 7.032 15.424.196.39.405.774.61 1.153 6.254 11.799 13.967 22.253 23.158 27.695l-.322.552-.085.14q-.098-.06-.183-.11l-.004-.002-.169-.102-.007-.005-.065-.039m-23.742-28.952.608 1.163-.441.234m-.167-1.397L91.42 297.044m14.152 37.706c7.148 13.496 14.953 22.87 23.317 27.983l.258-.428m-23.575-27.555.443-.232-.001-.001c7.127 13.455 14.878 22.741 23.133 27.788m0 0 .081-.135.003-.005.07-.12c-9.122-5.58-16.747-15.991-22.918-27.633a45 45 0 0 1-.615-1.161c-2.611-5.034-4.961-10.274-7.05-15.464a97 97 0 0 1-.49-1.219v-.001c-2.722-6.865-4.99-13.597-6.808-19.523m37.561 65.746.124.074z"/><path fill="#fff" stroke="#FF5031" d="m80.576 298.863-.092.505a36 36 0 0 0 10.163-2.008c.417-.145.837-.298 1.25-.463a38 38 0 0 0 3.576-1.635 36.3 36.3 0 0 0 12.126-10.244l-.47-.208m-26.553 14.053a35.5 35.5 0 0 0 9.904-1.975l.003-.001v.001c.412-.143.825-.294 1.23-.456l.001-.001a37 37 0 0 0 3.527-1.612 35.8 35.8 0 0 0 11.888-10.009m-26.553 14.053-.513.024.147-.813m.366.789.056-.31m26.497-13.743q.155-.204.308-.411l-.717-.318-.032-.015m.441.744-.282-.126m0 0q.122-.157.241-.318l-.4-.3m.159.618-.329-.146-.033-.015.203-.457m.159.618a35.5 35.5 0 0 1-11.747 9.865m11.588-10.483a35 35 0 0 1-11.82 10.04m0 0 .232.443m-.232-.443a36 36 0 0 1-3.346 1.537m3.346-1.537.231.444v-.001m0 0a36 36 0 0 1-3.392 1.559m-.185-.465.186.465m-.186-.465c-.42.169-.84.322-1.254.473a34.9 34.9 0 0 1-10.058 1.958m11.312-2.431.185.465m0 0c-.428.171-.855.327-1.268.478l-.004.001a35.4 35.4 0 0 1-9.803 1.966m0 0 .07-.392-.492-.087m.422.479-.4.02-.022-.499m37.844-7.844.284.155a35.98 35.98 0 0 1-18.9 26.522c-.163.086-.317.166-.472.24l-.01.005q-.603.304-1.205.587a35.8 35.8 0 0 1-19.557 2.971l.006-.307c6.642.871 13.4-.159 19.486-2.975q.623-.28 1.228-.597a9 9 0 0 0 .38-.192l.003-.001a35.68 35.68 0 0 0 18.757-26.408Zm-11.438 43.49v.001c.428-.196.855-.412 1.285-.637a36.06 36.06 0 0 0 18.866-37.585l-.337-.227a35.78 35.78 0 0 1-18.669 37.543h-.001a36 36 0 0 1-1.333.66l-.001.001q-.625.296-1.271.567l-.001.001zm0 0-.011.006c-.408.199-.817.384-1.232.565z"/><path stroke="#FF5031" d="m186.608 315.447.041-.13a99 99 0 0 1 4.013 1.343c2.738.979 6.464 2.431 10.418 4.32 3.955 1.89 8.128 4.213 11.764 6.932 3.64 2.722 6.714 5.82 8.51 9.252 3.64 6.958 3.991 12.656 2.234 17.252-1.763 4.61-5.684 8.211-10.79 10.882s-10.3 3.839-15.092 2.658c-4.777-1.177-9.258-4.715-12.898-11.672-1.504-2.875-2.304-6.356-2.618-10.085l12.371 3.319.392-.909-12.902-7.934c.168-6.304 1.337-12.709 2.476-17.571.578-2.465 1.147-4.53 1.571-5.977.212-.723.387-1.292.51-1.68Z"/><path fill="#FF5031" d="m197.186 348.289.364.695c4.266 8.054 8.925 13.643 13.919 16.682.072.045.145.085.217.131l.204-.339.192-.328c-5.471-3.24-10.064-9.464-13.787-16.488a26 26 0 0 1-.363-.686c-1.55-2.988-2.946-6.099-4.186-9.183a44 44 0 0 1-.291-.724c-1.617-4.078-2.965-8.078-4.045-11.6a39 39 0 0 1-.224-.746c-1.805-5.969-2.805-10.453-3.02-11.449q-.04-.182-.045-.204l-.376.078-.005-.002-.379.08c.004.016.048.242.143.657.344 1.555 1.322 5.752 2.935 11.121.074.242.148.492.226.741a158 158 0 0 0 3.137 9.271q.457 1.226.93 2.405.14.368.287.726 2.011 5 4.167 9.162"/><path fill="#FF5031" d="M182.451 327.149q-.068.385-.142.784a21.4 21.4 0 0 0 6.356-1.209 22 22 0 0 0 2.873-1.249 21.6 21.6 0 0 0 7.401-6.343l-.724-.322a20.8 20.8 0 0 1-7.037 5.977 21 21 0 0 1-1.992.915c-.25.101-.5.192-.747.282a20.8 20.8 0 0 1-5.988 1.165m-1.486 12.952q-.01.393-.015.783a21.6 21.6 0 0 0 12.069-1.758q.364-.17.726-.354.148-.07.291-.147a21.72 21.72 0 0 0 11.438-16.214q-.363-.203-.73-.398a20.93 20.93 0 0 1-12.012 16.387 20.8 20.8 0 0 1-11.767 1.701"/><path fill="#FF5031" d="M181.457 348.545c.05.298.099.592.16.884a21.7 21.7 0 0 0 15.933-.445q.373-.162.745-.342c.262-.119.522-.251.78-.386a21.76 21.76 0 0 0 11.366-22.813c-.293-.202-.592-.396-.892-.593a21 21 0 0 1-11.617 23.106 20.93 20.93 0 0 1-16.475.589"/><path fill="#fff" d="m442.353 227.033-.056-.005c-10.381-1.714-21.914-1.713-35.257.002h-.006a2.53 2.53 0 0 1-1.799-.724 2.52 2.52 0 0 1-.753-1.787v-12.084a2.52 2.52 0 0 1 2.514-2.515 136.8 136.8 0 0 1 35.399.003h.005a2.51 2.51 0 0 1 2.468 2.512v12.084a2.52 2.52 0 0 1-2.515 2.514"/><path fill="#47A138" d="m442.353 227.033-.056-.005c-10.381-1.714-21.914-1.713-35.257.002h-.006a2.53 2.53 0 0 1-1.799-.724 2.52 2.52 0 0 1-.753-1.787v-12.084a2.52 2.52 0 0 1 2.514-2.515 136.8 136.8 0 0 1 35.399.003h.005a2.51 2.51 0 0 1 2.468 2.512v12.084a2.52 2.52 0 0 1-2.515 2.514m-18.127-17.575c-5.747-.01-11.488.372-17.183 1.144a1.85 1.85 0 0 0-1.32.525 1.84 1.84 0 0 0-.557 1.308v12.084a1.834 1.834 0 0 0 1.83 1.83c13.355-1.72 24.943-1.721 35.384-.001a1.83 1.83 0 0 0 1.803-1.829v-12.084a1.83 1.83 0 0 0-1.83-1.83 148 148 0 0 0-18.127-1.147"/><path fill="#47A138" d="M424.675 222.692a4.792 4.792 0 1 0 0-9.584 4.792 4.792 0 0 0 0 9.584m-12.321-7.295h-4.107a1.03 1.03 0 0 1-1.027-1.027v-1.369a1.026 1.026 0 0 1 1.027-1.027h4.107a1.027 1.027 0 0 1 1.026 1.027v1.369a1.026 1.026 0 0 1-1.026 1.027m28.749 9.583h-4.107a1.03 1.03 0 0 1-.726-.301 1.03 1.03 0 0 1-.301-.726v-1.369c.001-.272.109-.533.301-.726.193-.192.454-.3.726-.301h4.107a1.03 1.03 0 0 1 1.027 1.027v1.369a1.03 1.03 0 0 1-1.027 1.027"/><path fill="#fff" d="m436.51 222.036-.05-.026c-8.898-5.617-19.523-10.101-32.483-13.71l-.005-.002a2.52 2.52 0 0 1-1.376-1.367 2.52 2.52 0 0 1 .001-1.94l4.699-11.132a2.52 2.52 0 0 1 3.295-1.339 136.8 136.8 0 0 1 32.611 13.769l.005.002a2.5 2.5 0 0 1 1.296 3.273l-4.699 11.133a2.52 2.52 0 0 1-3.294 1.339"/><path fill="#47A138" d="m436.51 222.036-.05-.026c-8.898-5.617-19.523-10.101-32.483-13.71l-.005-.002a2.52 2.52 0 0 1-1.376-1.367 2.52 2.52 0 0 1 .001-1.94l4.699-11.132a2.52 2.52 0 0 1 3.295-1.339 136.8 136.8 0 0 1 32.611 13.769l.005.002a2.5 2.5 0 0 1 1.296 3.273l-4.699 11.133a2.52 2.52 0 0 1-3.294 1.339m-9.866-23.241a126 126 0 0 0-16.275-5.629 1.84 1.84 0 0 0-1.421-.029 1.84 1.84 0 0 0-1.021.988l-4.699 11.133a1.833 1.833 0 0 0 .974 2.397c12.972 3.609 23.649 8.115 32.599 13.76a1.833 1.833 0 0 0 2.373-.984l4.699-11.133a1.83 1.83 0 0 0-.974-2.397 147 147 0 0 0-16.255-8.106"/><path fill="#47A138" d="M423.775 211.538a4.791 4.791 0 1 0 0-9.582 4.791 4.791 0 0 0 0 9.582m-10.378-11.89-3.784-1.597a1.03 1.03 0 0 1-.547-1.345l.533-1.261a1.03 1.03 0 0 1 1.345-.547l3.784 1.597a1.03 1.03 0 0 1 .546 1.346l-.532 1.261a1.02 1.02 0 0 1-.56.551 1.02 1.02 0 0 1-.785-.005m22.759 20.01-3.783-1.598a1.03 1.03 0 0 1-.547-1.345l.532-1.261a1.03 1.03 0 0 1 1.346-.547l3.783 1.597a1.03 1.03 0 0 1 .547 1.346l-.532 1.261a1.03 1.03 0 0 1-1.346.547"/><path stroke="#000" d="M447.686 213.086a6.4 6.4 0 0 1-1.928 1.859l-.079.048a6.42 6.42 0 0 1-7.883-10.023l.061-.061.037-.078 9.44-19.785 11.465-.741-11.661 20.44-.176.309.234.268a6.38 6.38 0 0 1 .49 7.764Zm91.066 146.672h-7.45l-3.869-31.369h11.32z"/><path fill="#2F2E41" d="m541.392 368.392-27.059-.001v-.342a10.53 10.53 0 0 1 10.532-10.532h.001l16.527.001z"/><path stroke="#000" d="M481.254 359.758h-7.45l-3.869-31.369h11.32z"/><path fill="#2F2E41" d="m483.894 368.392-27.059-.001v-.342a10.53 10.53 0 0 1 10.532-10.532l16.527.001zm-23.72-183.732s-2.308 32.871 2.238 49.425c4.546 16.555 5.358 116.668 5.358 116.668h15.239l13.207-136.275 30.448 136.756 14.515-.998-7.96-161.149z"/><path fill="#CBCBCB" d="m526.922 73.853-11.649-8.5-19.521 4.25-5.284 12.555-9.105 4.515a20.64 20.64 0 0 0-11.258 15.533l-13.007 89.824 76.121-2.943 9.215-105.785a8.29 8.29 0 0 0-7.781-9z"/><path fill="#CBCBCB" d="m476.546 93.689-7.03 9.477-30.622 93.398 14.354 5.747 22.984-43.522z"/><path stroke="#000" d="M524.516 36.561c0 12.592-10.208 22.799-22.799 22.799s-22.799-10.207-22.799-22.799 10.208-22.799 22.799-22.799 22.799 10.208 22.799 22.8Z"/><path fill="#389429" d="M502.032 60.914c9.39 0 17.002-7.612 17.002-17.002s-7.612-17.001-17.002-17.001-17.002 7.612-17.002 17.001 7.612 17.002 17.002 17.002"/><path stroke="#000" d="M512.551 13.372c0 7.027-5.696 12.724-12.723 12.724s-12.724-5.697-12.724-12.724S492.801.648 499.828.648s12.723 5.697 12.723 12.724Z"/><path fill="#000" d="M519.452 30.383c-.069 3.396-.985 6.643-2.558 9.069-1.574 2.425-3.684 3.843-5.893 3.958.136.013.27.038.409.04 2.28.045 4.495-1.304 6.157-3.752s2.634-5.792 2.704-9.299c.069-3.506-.771-6.887-2.334-9.398s-3.724-3.948-6.004-3.993c-.139-.002-.274.017-.41.024 2.202.203 4.255 1.703 5.732 4.189 1.476 2.486 2.263 5.767 2.197 9.162"/><path fill="#000" d="m532.606 99.067-4.743 47.29-16.753 33.017 21.496-80.306Z" opacity=".1"/><path fill="#F0F0F0" d="M31.145 244.612h-4.107v3.422h4.107z"/><path fill="#F8F8F8" d="M419.623 248.034h-8.093v-3.422h8.093zm-16.186 0h-8.094v-3.422h8.094zm-16.187 0h-8.093v-3.422h8.093zm-16.186 0h-8.094v-3.422h8.094zm-16.187 0h-8.093v-3.422h8.093zm-16.187 0h-8.093v-3.422h8.093zm-16.186 0h-8.093v-3.422h8.093zm-16.187 0h-8.093v-3.422h8.093zm-16.186 0h-8.093v-3.422h8.093zm-16.187 0h-8.093v-3.422h8.093zm-16.186 0h-8.094v-3.422h8.094zm-16.187 0h-8.093v-3.422h8.093zm-16.186 0h-8.094v-3.422h8.094zm-16.187 0h-8.093v-3.422h8.093zm-16.187 0h-8.093v-3.422h8.093zm-16.186 0h-8.094v-3.422h8.094zm-16.187 0h-8.093v-3.422h8.093zm-16.187 0h-8.093v-3.422h8.094zm-16.186 0h-8.093v-3.422h8.093zm-16.187 0h-8.093v-3.422h8.093zm-16.187 0H87.8v-3.422h8.093v3.422Zm-16.186 0h-8.093v-3.422h8.093zm-16.187 0h-8.093v-3.422h8.094zm-16.186 0h-8.093v-3.422h8.093z"/><path fill="#F0F0F0" d="M31.145 157.679h-4.107v3.422h4.107z"/><path fill="#F8F8F8" d="M419.385 161.423h-8.093V158h8.093zm-16.186 0h-8.094V158h8.094zm-16.187 0h-8.093V158h8.093zm-16.186 0h-8.094V158h8.094zm-16.187 0h-8.093V158h8.093zm-16.187 0h-8.093V158h8.093zm-16.186 0h-8.093V158h8.093zm-16.187 0h-8.093V158h8.093zm-16.187 0h-8.093V158h8.093zm-16.186 0h-8.094V158h8.094zm-16.187 0h-8.093V158h8.093zm-16.186 0h-8.094V158h8.094zm-16.187 0h-8.093V158h8.093zm-16.187 0h-8.093V158h8.093zm-16.186 0h-8.093V158h8.093zm-16.187 0h-8.093V158h8.093zm-16.186 0h-8.094V158h8.094zm-16.187 0h-8.093V158h8.093zm-16.187 0h-8.093V158h8.093zm-16.186 0h-8.093V158h8.093zm-16.187 0H87.56V158h8.093zm-16.187 0h-8.093V158h8.094zm-16.186 0h-8.093V158h8.093zm-16.187 0H39V158h8.094zm372.292-92.177h-8.093v-3.422h8.093zm-16.186 0h-8.094v-3.422h8.094zm-16.187 0h-8.093v-3.422h8.093zm-16.186 0h-8.094v-3.422h8.094zm-16.187 0h-8.093v-3.422h8.093zm-16.187 0h-8.093v-3.422h8.093zm-16.186 0h-8.093v-3.422h8.093zm-16.187 0h-8.093v-3.422h8.093zm-16.187 0h-8.093v-3.422h8.093zm-16.186 0h-8.094v-3.422h8.094zm-16.187 0h-8.093v-3.422h8.093zm-16.186 0h-8.094v-3.422h8.094zm-16.187 0h-8.093v-3.422h8.093zm-16.187 0h-8.093v-3.422h8.093zm-16.186 0h-8.093v-3.422h8.093zm-16.187 0h-8.093v-3.422h8.093zm-16.186 0h-8.094v-3.422h8.094zm-16.187 0h-8.093v-3.422h8.093zm-16.187 0h-8.093v-3.422h8.093zm-16.186 0h-8.093v-3.422h8.093zm-16.187 0H87.56v-3.422h8.093zm-16.187 0h-8.093v-3.422h8.094zm-16.186 0h-8.093v-3.422h8.093zm-16.187 0H39v-3.422h8.094z"/><path fill="#3F3D56" d="M160.859 245.638h-33.541V368.85h33.541z"/><path fill="#47A138" d="M167.02 245.638h-33.541V368.85h33.541z"/><path fill="#3F3D56" d="M240.262 158.706h-33.541V368.85h33.541z"/><path fill="#47A138" d="M246.423 158.706h-33.541V368.85h33.541z"/><path fill="#3F3D56" d="M319.665 71.773h-33.541V368.85h33.541z"/><path fill="#47A138" d="M325.825 71.773h-33.54V368.85h33.54z"/><path fill="#F8F8F8" d="M27.38 167.604a8.214 8.214 0 1 0 0-16.428 8.214 8.214 0 0 0 0 16.428m0-92.176a8.214 8.214 0 1 0 0-16.428 8.214 8.214 0 0 0 0 16.428m0 179.109a8.214 8.214 0 1 0 0-16.429 8.214 8.214 0 0 0 0 16.429"/><path fill="#47A138" d="M607.843 368.083H0v1.533h607.843z"/><path fill="#fff" d="m512.858 211.974-.056-.004c-10.382-1.715-21.915-1.714-35.258.002h-.005a2.53 2.53 0 0 1-2.355-1.543 2.5 2.5 0 0 1-.198-.969v-12.084a2.515 2.515 0 0 1 2.515-2.514 136.8 136.8 0 0 1 35.399.002h.005a2.505 2.505 0 0 1 2.467 2.512v12.084a2.52 2.52 0 0 1-2.514 2.514"/><path fill="#47A138" d="m512.858 211.974-.056-.004c-10.382-1.715-21.915-1.714-35.258.002h-.005a2.53 2.53 0 0 1-2.355-1.543 2.5 2.5 0 0 1-.198-.969v-12.084a2.515 2.515 0 0 1 2.515-2.514 136.8 136.8 0 0 1 35.399.002h.005a2.505 2.505 0 0 1 2.467 2.512v12.084a2.52 2.52 0 0 1-2.514 2.514m-18.128-17.575c-5.747-.01-11.488.372-17.183 1.144a1.85 1.85 0 0 0-1.729 1.124 1.9 1.9 0 0 0-.147.709v12.084a1.83 1.83 0 0 0 1.83 1.83c13.354-1.72 24.943-1.721 35.384-.001a1.83 1.83 0 0 0 1.803-1.829v-12.084a1.834 1.834 0 0 0-1.83-1.83 148 148 0 0 0-18.128-1.147"/><path fill="#47A138" d="M495.179 207.632a4.792 4.792 0 1 0 0-9.584 4.792 4.792 0 0 0 0 9.584m-12.321-7.294h-4.107a1.03 1.03 0 0 1-1.027-1.027v-1.369a1.03 1.03 0 0 1 1.027-1.027h4.107a1.03 1.03 0 0 1 1.027 1.027v1.369a1.03 1.03 0 0 1-.301.726c-.193.192-.454.3-.726.301m28.749 9.583H507.5a1.03 1.03 0 0 1-1.027-1.027v-1.369c.001-.272.109-.533.301-.726.193-.192.454-.3.726-.301h4.107a1.03 1.03 0 0 1 1.027 1.027v1.369a1.03 1.03 0 0 1-1.027 1.027"/><path stroke="#000" d="M505.661 196.103v-.003a6.383 6.383 0 0 1 7.046-6.794l.354.038.152-.322 10.034-21.286 5.978 9.811-10.774 19.092-.042.075-.015.084a6.424 6.424 0 0 1-6.676 5.308 6.42 6.42 0 0 1-6.057-6.003Z"/><path fill="#CBCBCB" d="m533.52 80.4 4.296-5.602s10.466-2.132 12.244 12.244l-1.12 63.909-22.935 36.099-14.895-3.803 19.475-42.883z"/><path fill="#000" d="M505.071 44.908a2.3 2.3 0 0 0 .83-.637c.157-.203.277-.447.351-.714s.101-.55.078-.832a1.5 1.5 0 0 0-.146-.566 1.2 1.2 0 0 0-.332-.426c-.351-.27-.815-.26-1.283.012L504.515 37l-.381.007.064 5.578.29-.238c.335-.276.818-.476 1.165-.208.086.07.158.166.209.277a1 1 0 0 1 .09.364c.016.21-.004.42-.059.62-.055.198-.144.38-.26.532-.412.513-1.022.685-1.719.842l.067.469a5.3 5.3 0 0 0 1.09-.335m6.599-6.848-3.632.55.102.675 3.632-.55zm-18.568 0 3.633.55-.102.675-3.633-.55z"/></svg>