<svg xmlns="http://www.w3.org/2000/svg" width="334" height="267" fill="none"><path stroke="#47A138" d="m48.573 224.737.984-.087.492-7.31c5.568 2.704 11.068 6.09 15.47 10.256 7.43 7.031 13.013 14.619 16.043 21.188 1.516 3.285 2.382 6.292 2.535 8.833.153 2.539-.406 4.565-1.681 5.966-1.274 1.399-3.207 2.115-5.696 2.148-2.491.033-5.493-.623-8.818-1.919-6.647-2.591-14.483-7.703-21.913-14.735a48 48 0 0 1-3.545-3.762l8.41-1.236.015-.987-11.757-2.106c-5.038-7.165-8.77-15.413-11.25-21.899a132 132 0 0 1-2.793-8.077 97 97 0 0 1-.691-2.336l-.016-.056c.41.086.974.209 1.668.371 1.51.35 3.637.88 6.168 1.612l1.12 4.509.985-.087.25-3.718a117 117 0 0 1 11.754 4.321z"/><path stroke="#47A138" d="m70.415 214.379.887.434 4.153-5.896c3.42 5.164 6.434 10.868 8.102 16.66 2.813 9.77 3.751 19.051 3.01 26.15-.37 3.55-1.158 6.528-2.32 8.744-1.162 2.214-2.674 3.626-4.486 4.144s-3.847.119-6.01-1.145c-2.165-1.265-4.418-3.374-6.622-6.189-4.405-5.628-8.548-13.993-11.362-23.763a48 48 0 0 1-1.132-4.985l7.87 3.315.523-.838-9.057-7.868c-.684-8.642.309-17.518 1.482-24.263.59-3.396 1.226-6.246 1.714-8.246.243-1 .45-1.787.596-2.324l.012-.045c.31.286.734.682 1.252 1.18a123 123 0 0 1 4.492 4.553l-1.333 4.371.887.434 2.111-2.997a119 119 0 0 1 7.926 9.735z"/><path fill="#E6E6E6" d="M209.222 63.266h-1.462V23.194a23.204 23.204 0 0 0-14.309-21.428A23.2 23.2 0 0 0 184.581 0H99.733a23.17 23.17 0 0 0-16.39 6.793 23.2 23.2 0 0 0-6.79 16.4V243.04a23.2 23.2 0 0 0 6.79 16.4 23.18 23.18 0 0 0 16.39 6.793h84.848a23.17 23.17 0 0 0 16.39-6.793 23.2 23.2 0 0 0 6.789-16.4V91.791h1.461z"/><path fill="#fff" d="M185.602 6.275h-11.097a8.193 8.193 0 0 1-3.755 10.35 8.26 8.26 0 0 1-3.875.965h-48.707a8.26 8.26 0 0 1-3.874-.965 8.22 8.22 0 0 1-4.322-6.41 8.2 8.2 0 0 1 .567-3.94h-10.365c-4.6 0-9.012 1.821-12.265 5.063a17.26 17.26 0 0 0-5.08 12.225V242.67c0 4.585 1.827 8.982 5.08 12.224a17.38 17.38 0 0 0 12.265 5.064h85.428c4.6 0 9.012-1.822 12.265-5.064a17.26 17.26 0 0 0 5.08-12.224V23.562c0-4.585-1.827-8.982-5.08-12.224a17.38 17.38 0 0 0-12.265-5.063"/><path fill="#CCC" d="M131.532 93.227c0-1.574.387-3.12 1.121-4.483a8.7 8.7 0 0 1 3.064-3.28 7.94 7.94 0 0 0-4.183-1.202 7.94 7.94 0 0 0-4.183 1.2 8.7 8.7 0 0 0-3.063 3.282 9.47 9.47 0 0 0-1.121 4.482c0 1.574.387 3.12 1.121 4.483a8.7 8.7 0 0 0 3.063 3.281 7.94 7.94 0 0 0 4.183 1.2 7.94 7.94 0 0 0 4.183-1.201 8.7 8.7 0 0 1-3.064-3.28 9.47 9.47 0 0 1-1.121-4.482"/><path fill="#CCC" d="M142.887 93.227a8.958 8.958 0 0 1 4.483-7.763 8.964 8.964 0 1 0 0 15.525 8.96 8.96 0 0 1-4.483-7.762"/><path fill="#47A138" d="M153.645 102.19a8.964 8.964 0 0 0 8.964-8.964 8.964 8.964 0 0 0-8.964-8.964 8.964 8.964 0 0 0-8.964 8.964 8.964 8.964 0 0 0 8.964 8.964"/><path fill="#CCC" d="M167.948 121.015h-51.017a1.84 1.84 0 0 1-1.295-.537 1.84 1.84 0 0 1-.537-1.295V68.166a1.837 1.837 0 0 1 1.832-1.832h51.017a1.835 1.835 0 0 1 1.832 1.832v51.017a1.84 1.84 0 0 1-.537 1.295 1.84 1.84 0 0 1-1.295.537m-51.017-53.948a1.1 1.1 0 0 0-1.099 1.1v51.016a1.1 1.1 0 0 0 1.099 1.099h51.017a1.1 1.1 0 0 0 1.099-1.099V68.166a1.1 1.1 0 0 0-1.099-1.099z"/><path fill="#004D61" d="M191.091 157.179h-95.02v.896h95.02zM191.091 184.967h-95.02v.897h95.02z"/><path fill="#47A138" d="M98.98 151.576a3.18 3.18 0 1 0 0-6.358 3.18 3.18 0 0 0 0 6.358M98.98 178.75a3.179 3.179 0 1 0 0-6.357 3.179 3.179 0 0 0 0 6.357M188.848 218.779h-31.811a2.073 2.073 0 0 1-2.073-2.073v-11.149a2.073 2.073 0 0 1 2.073-2.073h31.811a2.073 2.073 0 0 1 2.073 2.073v11.149a2.073 2.073 0 0 1-2.073 2.073M109.349 151.576a3.18 3.18 0 1 0 0-6.359 3.18 3.18 0 0 0 0 6.359M109.349 178.75a3.179 3.179 0 1 0 0-6.357 3.179 3.179 0 0 0 0 6.357M119.719 151.576a3.18 3.18 0 1 0-.002-6.36 3.18 3.18 0 0 0 .002 6.36M119.719 178.75a3.18 3.18 0 1 0 0-6.359 3.18 3.18 0 0 0 0 6.359"/><path fill="#3F3D56" d="M332.346 267H1.654c-.708 0-1.281-.251-1.281-.561 0-.309.573-.561 1.281-.561h330.692c.707 0 1.281.251 1.281.561s-.574.561-1.281.561"/><path stroke="#000" d="m209.593 106.735.225.149.248-.105 27.96-11.904.261-.111.039-.282.939-6.916 10.215-.063-.625 15.958-36.546 9.641-.27.071-.081.267a6 6 0 0 1-.256.689 5.86 5.86 0 0 1-2.27 2.519 5.89 5.89 0 0 1-6.509-.268 5.87 5.87 0 0 1-2.055-2.703 5.84 5.84 0 0 1-.211-3.386 5.878 5.878 0 0 1 4.755-4.439 5.9 5.9 0 0 1 3.373.433q.422.192.808.45ZM253.499 259.5h-6.509l-3.427-29 9.937.001z"/><path fill="#2F2E41" d="M241.273 257H256v10h-24c0-2.652.977-5.196 2.716-7.071s4.098-2.929 6.557-2.929"/><path stroke="#000" d="m280.685 228.547 2.769 28.258-6.607.654-6.236-27.914z"/><path fill="#2F2E41" d="m270.954 256.485 14.756-1.453.915 9.29-24.046 2.369a9.336 9.336 0 0 1 8.375-10.206"/><path fill="#FF5031" d="M256.5 55c8.561 0 15.5-6.94 15.5-15.5S265.061 24 256.5 24 241 30.94 241 39.5 247.94 55 256.5 55"/><path fill="#2F2E41" d="M244.954 254a2.76 2.76 0 0 1-1.796-.658 2.82 2.82 0 0 1-.956-1.674c-3.955-22.213-16.883-94.847-17.192-96.859a1 1 0 0 1-.01-.14v-5.416c0-.197.061-.389.174-.55l1.708-2.42a.916.916 0 0 1 .713-.394c9.737-.462 41.625-1.815 43.165.132 1.547 1.957 1.001 7.887.875 9.056l.006.122 14.327 92.697a2.87 2.87 0 0 1-.502 2.099 2.8 2.8 0 0 1-1.814 1.139l-8.948 1.491a2.8 2.8 0 0 1-1.924-.386 2.85 2.85 0 0 1-1.208-1.564c-2.768-8.947-12.047-39.046-15.263-50.693a.3.3 0 0 0-.13-.179.306.306 0 0 0-.407.058.32.32 0 0 0-.074.209c.16 11.102.549 39.428.682 49.211l.015 1.054a2.87 2.87 0 0 1-.725 1.932 2.8 2.8 0 0 1-1.826.928l-8.628.793a3 3 0 0 1-.262.012"/><path fill="#47A138" d="M246.682 61.432c-2.732 1.597-4.367 4.532-5.305 7.518a70.2 70.2 0 0 0-3.113 17.023l-.991 17.299L225 149.133c10.637 8.85 16.773 6.839 31.091-.4s15.955 2.413 15.955 2.413l2.863-39.021L279 69.484a19 19 0 0 0-3.098-2.93 31.9 31.9 0 0 0-12.867-5.878 32.2 32.2 0 0 0-14.185.24z"/><path stroke="#000" d="m243.517 115.963.235.135.242-.123 27.724-14.093.255-.13.017-.286.434-7.197 10.482-.734.581 16.515-36.695 12.325-.265.089-.063.273a6.2 6.2 0 0 1-1.831 3.165 6 6 0 0 1-3.271 1.544 5.97 5.97 0 0 1-3.553-.618 6.1 6.1 0 0 1-2.582-2.564 6.25 6.25 0 0 1 .759-6.971 6.05 6.05 0 0 1 3.068-1.928 5.97 5.97 0 0 1 3.599.185q.448.172.864.413Z"/><path fill="#47A138" d="M278.22 69.825c6.615 2.398 7.78 28.377 7.78 28.377-7.782-4.396-17.121 2.798-17.121 2.798s-1.945-6.794-4.28-15.587a15.7 15.7 0 0 1-.245-7.605 15.4 15.4 0 0 1 3.358-6.783s3.893-3.6 10.508-1.2"/><path stroke="#000" d="M242.148 32.66a8.4 8.4 0 0 0-.565 1.04c-.118-2.01-.11-4.026.023-6.037.174-1.513 1.385-3.136 3.77-4.696 2.374-1.554 5.825-2.985 10.276-4.136 4.253-1.1 7.491.718 9.708 2.869a17.5 17.5 0 0 1 2.515 3.109 17 17 0 0 1 .79 1.375l.038.077.009.019.002.004.074.159.157.078c1.383.685 2.316 2.12 2.881 3.978.563 1.851.736 4.048.655 6.125s-.412 3.996-.833 5.284c-.214.654-.435 1.095-.623 1.319a1 1 0 0 1-.091.092c-1.217-.937-2.611-.496-3.556.034-.358.2-.678.426-.939.632l-1.452-12.947-.056-.5-.499.06h-.007l-.02.003-.081.009q-.107.013-.315.033c-.276.029-.678.067-1.18.11-1.004.083-2.408.179-4.004.227-3.206.096-7.144-.003-10.193-.757-1.655-.41-3.004-.251-4.089.256-1.077.504-1.849 1.33-2.395 2.181Z"/><path fill="#000" d="M251.523 40.797a1.1 1.1 0 0 1-.343-.387 1.6 1.6 0 0 1-.144-.432 2 2 0 0 1-.033-.505c.006-.121.026-.24.061-.344a.8.8 0 0 1 .136-.258c.145-.164.337-.158.53.007l.022-2.878.157.004-.026 3.384-.12-.145c-.138-.167-.337-.288-.48-.126a.5.5 0 0 0-.087.168.9.9 0 0 0-.037.221c-.006.127.002.255.025.376q.034.182.107.323c.17.311.422.415.709.51l-.028.285a1.7 1.7 0 0 1-.449-.203M247.563 36.96l2.278.345-.064.423-2.278-.345zM259.207 36.96l-2.278.345.064.423 2.278-.345z"/></svg>