<svg xmlns="http://www.w3.org/2000/svg" width="355" height="262" fill="none"><path fill="#2F2E41" d="M345.87 231.264H74.142a9.11 9.11 0 0 1-9.112-9.111q147.753-17.172 289.951 0a9.11 9.11 0 0 1-9.111 9.111"/><path fill="#3F3D56" d="m354.981 222.689-289.95-.536 33.604-56.543.16-.268V40.727a11.517 11.517 0 0 1 11.518-11.517h197.778a11.51 11.51 0 0 1 10.641 7.11c.579 1.397.876 2.895.876 4.407V166.2z"/><path fill="#fff" d="M110.051 37.249A3.755 3.755 0 0 0 106.299 41v113.622a3.756 3.756 0 0 0 3.752 3.751h199.91a3.76 3.76 0 0 0 3.752-3.751V41.001a3.757 3.757 0 0 0-3.752-3.752z"/><path fill="#2F2E41" d="M110.888 173.381a1.61 1.61 0 0 0-1.461.936l-10.354 22.51a1.605 1.605 0 0 0 .689 2.082c.236.13.502.198.771.198h217.75c.275 0 .544-.07.783-.204a1.6 1.6 0 0 0 .824-1.332 1.6 1.6 0 0 0-.169-.791l-11.255-22.51a1.6 1.6 0 0 0-1.438-.889z"/><path fill="#fff" d="M209.202 35.373a2.412 2.412 0 1 0 0-4.824 2.412 2.412 0 0 0 0 4.824"/><path fill="#2F2E41" d="M187.799 203.394a1.615 1.615 0 0 0-1.553 1.19l-2.597 9.647a1.608 1.608 0 0 0 1.552 2.026h49.396a1.604 1.604 0 0 0 1.591-1.379 1.6 1.6 0 0 0-.072-.755l-3.34-9.647a1.612 1.612 0 0 0-1.519-1.082zM319.608 163.466v2.143H98.635l.166-.267v-1.876z"/><path fill="#47A138" d="M313.445 75.034c20.72 0 37.517-16.797 37.517-37.517S334.165 0 313.445 0s-37.517 16.797-37.517 37.517 16.797 37.517 37.517 37.517"/><path fill="#fff" d="M328.987 53.863h-31.085a2.146 2.146 0 0 1-2.144-2.143V32.96a2.15 2.15 0 0 1 2.144-2.144h31.085a2.147 2.147 0 0 1 2.144 2.144V51.72a2.143 2.143 0 0 1-2.144 2.143m-31.085-20.902V51.72h31.087l-.002-18.759z"/><path fill="#fff" d="M323.092 32.961h-19.295v-8.575c0-6.211 4.058-10.719 9.648-10.719s9.647 4.508 9.647 10.72zm-17.151-2.143h15.007v-6.432c0-5.049-3.085-8.575-7.503-8.575s-7.504 3.526-7.504 8.575zM313.445 43.948a2.143 2.143 0 1 0 0-4.286 2.143 2.143 0 0 0 0 4.286"/><path fill="#E6E6E6" d="M287.255 119.835H132.757a2.865 2.865 0 0 1-2.861-2.861V78.649a2.86 2.86 0 0 1 2.861-2.86h154.498a2.864 2.864 0 0 1 2.861 2.86v38.325a2.867 2.867 0 0 1-2.861 2.861M132.757 76.933a1.72 1.72 0 0 0-1.717 1.716v38.325a1.718 1.718 0 0 0 1.717 1.716h154.498a1.715 1.715 0 0 0 1.716-1.716V78.649a1.715 1.715 0 0 0-1.716-1.716z"/><path fill="#E6E6E6" d="M156.763 107.995c6.436 0 11.654-5.218 11.654-11.654 0-6.437-5.218-11.655-11.654-11.655-6.437 0-11.655 5.218-11.655 11.655s5.218 11.654 11.655 11.654M183.679 88.571a1.94 1.94 0 0 0-1.376.568 1.96 1.96 0 0 0-.57 1.375 1.96 1.96 0 0 0 .57 1.374 1.95 1.95 0 0 0 1.376.568h91.571a1.94 1.94 0 0 0 1.373-3.316 1.94 1.94 0 0 0-1.373-.569zM183.679 100.226a1.942 1.942 0 1 0 0 3.885h39.403a1.946 1.946 0 0 0 1.943-1.943 1.94 1.94 0 0 0-1.943-1.942z"/><path stroke="#000" d="m95.96 95.306.16-.085.067-.168 2.987-7.38a4.503 4.503 0 1 1 7.257 4.972l-8.47 7.956-27.79 14.775-.326-11.413c9.207-1.575 17.984-4.283 26.116-8.657Z"/><path fill="#2F2E41" d="M28.47 188.678a5.61 5.61 0 0 1 .713-4.54l6.274-9.628a10.96 10.96 0 0 1 14.223-3.753c-2.636 4.488-2.269 8.426.91 11.847a57 57 0 0 0-13.545 9.234 5.6 5.6 0 0 1-5.101.629 5.61 5.61 0 0 1-3.474-3.789"/><path fill="#8B8B8B" d="M99.555 176.089a10.77 10.77 0 0 1-9.15 5.226l-41.68.316-1.807-10.484 18.438-5.423-15.545-11.93L66.8 133.91l30.863 28.764a10.77 10.77 0 0 1 1.891 13.415"/><path fill="#8B8B8B" d="M42.219 247.789h-9.762c-8.764-60.074-17.684-120.316 8.677-142.801l31.09 5.062-3.976 26.391-17.353 19.883z"/><path fill="#2F2E41" d="M50.799 261.398a5.607 5.607 0 0 1-4.54-.713l-10.598-1.424a10.965 10.965 0 0 1-3.754-14.223c4.489 2.636 8.426 2.268 11.847-.912 2.418 4.882 6.401 4.584 10.205 8.696a5.61 5.61 0 0 1-3.16 8.576"/><path fill="#3F3D56" d="M70.324 120.935c-13.159 8.967-22.456.307-29.551-13.054.985-8.176-.61-17.96-3.568-28.591A19.46 19.46 0 0 1 49.088 55.82l15.545 6.508c13.2 10.76 15.798 22.414 10.846 34.706z"/><path stroke="#000" d="M3.615 77.485 29.22 59.918l2.674 13.71-14.13 7.419-.794.416.771.457 25.523 15.098 3.508 8.653a4.172 4.172 0 1 1-8.032 1.813l-.361-6.14-.02-.339-.323-.107L5.413 90.132A7.13 7.13 0 0 1 .94 85.779l-.47.17.47-.17a7.13 7.13 0 0 1 2.675-8.293l-.283-.412z"/><path fill="#3F3D56" d="M46.918 75.344c-6.03-2.643-11.515.228-18.437 2.53l-1.085-19.16c6.874-3.664 13.427-4.651 19.522-1.808z"/><path stroke="#000" d="M69.278 52.836H36.539c-.541-.001-1.06-.216-1.443-.596a2.03 2.03 0 0 1-.597-1.433V36.761c0-4.858 1.939-9.518 5.391-12.954a18.45 18.45 0 0 1 13.019-5.367c4.883 0 9.566 1.931 13.018 5.367a18.28 18.28 0 0 1 5.391 12.955v14.045c0 .537-.215 1.052-.597 1.433a2.05 2.05 0 0 1-1.443.596Z"/><path fill="#47A138" d="M69.011 46c3.678-6.728 1.206-15.164-5.523-18.842s-15.165-1.205-18.843 5.523c-3.678 6.729-1.205 15.165 5.523 18.843 6.729 3.678 15.165 1.206 18.843-5.523"/><path fill="#000" d="M62.793 46.213c.31-.136.593-.353.83-.638.158-.203.278-.446.352-.713s.1-.55.078-.832a1.5 1.5 0 0 0-.146-.566 1.2 1.2 0 0 0-.332-.426c-.351-.27-.815-.26-1.284.011l-.054-4.744-.38.007.063 5.577.29-.238c.336-.275.818-.475 1.165-.207a.8.8 0 0 1 .21.276 1 1 0 0 1 .09.365c.016.21-.005.42-.06.62-.055.198-.143.38-.26.532-.412.512-1.022.684-1.719.841l.068.47a5.3 5.3 0 0 0 1.089-.335M69.393 39.365l-3.633.55.102.675 3.633-.55zM50.825 39.365l3.632.55-.102.675-3.633-.55z"/><path stroke="#000" d="m55.642 35.214-.902 2.59h-2.237l-.37-5.334-.972-.13-1.902 5.465h-5.061c.058-3.832 1.567-7.492 4.209-10.202 2.69-2.76 6.334-4.31 10.132-4.314h2.8c3.799.004 7.443 1.554 10.133 4.314 2.642 2.71 4.15 6.37 4.209 10.202H56.784l-.171-2.461z"/></svg>