<svg xmlns="http://www.w3.org/2000/svg" width="328" height="231" fill="none"><path fill="#2F2E41" d="m301.949 230.482.986-.019a229 229 0 0 0-3.501-32.692c-4.265-23.121-11.358-38.305-21.08-45.132l-.567.807c22.712 15.947 24.15 76.427 24.162 77.036M289.619 230.246l.987-.019c-.022-1.092-.638-26.836-10.773-33.952l-.566.807c9.726 6.829 10.347 32.902 10.352 33.164"/><path fill="#004D61" d="M272.176 153.536a4.932 4.932 0 1 0-.003-9.865 4.932 4.932 0 0 0 .003 9.865M274.618 195.95a4.932 4.932 0 1 0 0-9.864 4.932 4.932 0 0 0 0 9.864"/><path fill="#2F2E41" d="M291.918 156.492c-.927 5.92 1.489 11.215 1.489 11.215s3.918-4.303 4.845-10.223-1.489-11.216-1.489-11.216-3.918 4.304-4.845 10.224M275.797 170.87c5.668 1.944 11.303.488 11.303.488s-3.555-4.608-9.223-6.552c-5.668-1.945-11.303-.488-11.303-.488s3.555 4.608 9.223 6.552M275.615 208.432a15.35 15.35 0 0 0 7.923.342 14 14 0 0 0-14.388-4.935 15.36 15.36 0 0 0 6.465 4.593"/><path stroke="#DEE9EA" d="m160.481 77.086-.195-.101-31.797-16.535-.079-.04-.06-.067.37-.336-.37.336h-.001l-.001-.002-.006-.006-.023-.025-.09-.1-.349-.38a308.053 308.053 0 0 0-5.695-6.017c-3.508-3.604-7.834-7.851-11.159-10.485-3.299-2.613-5.337-2.864-6.478-2.601a2.6 2.6 0 0 0-1.211.636c-.123.117-.21.224-.264.3q-.04.056-.056.083l-.01.017m57.474 35.323-57.915-35.56m57.915 35.56.206-.075a4.716 4.716 0 0 1 6.053 5.994 4.716 4.716 0 0 1-6.535 2.666 4.7 4.7 0 0 1-1.936-1.77l-.088-.144-.157-.061-32.803-12.849m35.26 6.24-35.52-5.804m-21.954-29.52v-.001l-.001.002m.001 0h-.001m.001 0h-.001m0 0-.004.008-.007.012-2.65 4.416m0 0-.192-.267-.406.292m.598-.025-.169.282-.429-.257m.598-.025 6.585 9.158m-7.183-9.133 2.819-4.698m-2.819 4.698 6.813 9.475m-3.994-14.173.442.234zM106.56 55.7l.323-.382.047.04m-.37.342 18.401 15.583M106.56 55.7l.406-.292-.036-.05m0 0 18.291 15.49m-.26.435.183-.466.077.03m-.26.436.323-.382-.063-.053M65.186 80.956l.5-.024-.001-.003v-.008l-.002-.034-.006-.134a191 191 0 0 1-.096-2.426c-.056-1.617-.12-3.863-.154-6.373-.068-5.027-.012-11.09.477-15.303.485-4.18 1.748-5.798 2.74-6.42.501-.313.969-.397 1.307-.406a2.2 2.2 0 0 1 .517.049h.001l.009.003.013.003 4.996 1.25 1.82 11.131-1.982 23.887-14.11 32.28-.067.155.04.164a4.727 4.727 0 0 1-6.637 5.383 4.73 4.73 0 0 1-2.68-4.289 4.72 4.72 0 0 1 2.733-4.256l.2-.093.066-.21 10.792-34.175.027-.086-.004-.089zM131.476 197.536l-3.186 25.829h-6.013l-.002-25.829z"/><path fill="#2F2E41" d="m120.002 221.594 13.699-.001a8.731 8.731 0 0 1 8.73 8.73v.284h-22.428z"/><path stroke="#DEE9EA" d="m55.61 197.536-3.186 25.829H46.41v-25.829z"/><path fill="#2F2E41" d="m44.136 221.594 13.698-.001a8.734 8.734 0 0 1 8.73 8.73v.284H44.137zM80.25 39.235l-11.538 9.848 9.468 29.963 2.137 6.69S67.272 97.764 59.2 131.362s-21.276 78.243-21.276 78.243l27.871 7.978 22.675-76.003 26.671 59.626 3.08 17.636 23.735-6.998-5.599-44.23-27.994-76.563 2.908-20.295s4.367-10.13-3.219-20.856l-2.38-10.077-8.524-2.1z"/><path stroke="#DEE9EA" d="M99.415 33.38h-31.19a1.923 1.923 0 0 1-1.921-1.92V18.017a17.516 17.516 0 1 1 35.032 0V31.46a1.92 1.92 0 0 1-1.92 1.92Z"/><path fill="#004D61" d="M99.112 26.695c3.499-6.401 1.147-14.427-5.254-17.926-6.401-3.5-14.427-1.147-17.926 5.254-3.5 6.401-1.147 14.427 5.254 17.926 6.401 3.5 14.427 1.147 17.926-5.254"/><path fill="#DEE9EA" d="M93.12 26.866a2.4 2.4 0 0 0 .873-.591c.165-.188.291-.414.369-.661s.106-.511.082-.772a1.3 1.3 0 0 0-.154-.525 1.2 1.2 0 0 0-.348-.395c-.37-.25-.857-.242-1.35.01l-.056-4.399-.4.006.067 5.173.304-.22c.353-.256.86-.442 1.225-.194a.75.75 0 0 1 .22.257.8.8 0 0 1 .095.338c.016.194-.005.39-.063.574a1.4 1.4 0 0 1-.273.494c-.433.476-1.075.635-1.807.78l.071.436q.586-.1 1.145-.31M99.475 20.382l-3.456.524.097.641 3.456-.523zM81.81 20.382l3.456.524-.097.641-3.456-.523z"/><path stroke="#DEE9EA" d="m86.358 16.454-.86 2.406H83.38l-.354-4.962-.97-.133-1.82 5.095h-4.828a13.77 13.77 0 0 1 13.75-13.52h2.688a13.766 13.766 0 0 1 13.75 13.52H87.49l-.162-2.273z"/><path fill="#fff" d="m202.368 157.399-122.4 43.275a12.117 12.117 0 0 1-15.444-7.376l-21.027-59.471a12.115 12.115 0 0 1 7.376-15.444l122.4-43.276a12.115 12.115 0 0 1 15.444 7.376l21.027 59.471a12.117 12.117 0 0 1-7.376 15.445"/><path fill="#F2F2F2" d="m209.744 141.954.111.315a11.555 11.555 0 0 1-7.046 14.748L79.797 200.509a11.557 11.557 0 0 1-14.747-7.043l-.111-.315z"/><path fill="#004D61" d="M72.33 132.191c-8.114 5.338-18.512 1.321-22.148-4.531l.58-.33c6.907-4.305 17.164-1.907 21.568 4.861"/><path fill="#3F3D56" d="M174 147.337c-1.986.702-3.774.67-5.315-.096-3.483-1.73-5.117-6.862-6.431-10.986-.382-1.199-.743-2.332-1.11-3.258l-.006-.015a7.386 7.386 0 0 1 4.475-9.376l16.464-5.821c1.983-.701 3.77-.669 5.309.095 3.483 1.729 5.119 6.859 6.433 10.981.383 1.202.745 2.337 1.114 3.265a7.387 7.387 0 0 1-4.473 9.391zm-12.172-14.604c.376.948.74 2.091 1.125 3.3 1.271 3.991 2.854 8.959 6.059 10.551 1.375.684 2.927.704 4.744.062l16.459-5.82a6.65 6.65 0 0 0 4.031-8.444c-.373-.937-.738-2.084-1.126-3.298-1.272-3.99-2.856-8.956-6.06-10.547-1.374-.682-2.924-.702-4.738-.06l-16.463 5.82a6.65 6.65 0 0 0-4.031 8.436M68.917 134.113a16.36 16.36 0 0 1-8.995.494c-4.36-.957-8.317-3.56-10.326-6.793l-.202-.324.905-.515c7.011-4.366 17.524-1.999 22.062 4.973l.2.306-.305.2a15.4 15.4 0 0 1-3.339 1.659m-18.491-6.366c1.967 2.922 5.626 5.259 9.654 6.144 3.915.914 8.032.25 11.46-1.85-4.438-6.421-14.273-8.55-20.859-4.439zM73.218 176.797a6.087 6.087 0 0 1-6.19-1.027 7.62 7.62 0 0 1-2.491-7.039 6.11 6.11 0 0 1 4.29-4.736l21.936-7.755a6.12 6.12 0 0 1 6.309.992 7.62 7.62 0 0 1 2.488 7.038c-.433 2.264-1.961 3.932-4.291 4.73l-21.937 7.756zm-4.255-12.073a5.39 5.39 0 0 0-3.706 4.145 6.86 6.86 0 0 0 2.244 6.34 5.39 5.39 0 0 0 5.581.857l21.948-7.759a5.41 5.41 0 0 0 3.81-4.174 6.86 6.86 0 0 0-2.242-6.341 5.42 5.42 0 0 0-5.585-.863l-21.949 7.76z"/><path fill="#004D61" d="m174.147 129.839-6.915 2.445a1.83 1.83 0 0 1-2.34-1.117 1.833 1.833 0 0 1 1.118-2.34l6.915-2.445a1.832 1.832 0 1 1 1.222 3.457M176.103 135.371l-6.915 2.445a1.834 1.834 0 1 1-1.223-3.457l6.916-2.445a1.83 1.83 0 0 1 2.34 1.117 1.833 1.833 0 0 1-1.118 2.34M178.059 140.904l-6.915 2.445a1.834 1.834 0 0 1-1.223-3.458l6.916-2.445a1.83 1.83 0 0 1 1.974.502 1.839 1.839 0 0 1-.137 2.59 1.9 1.9 0 0 1-.615.366M186.249 125.561l-6.915 2.445a1.836 1.836 0 0 1-2.443-1.826 1.83 1.83 0 0 1 .605-1.266c.179-.162.388-.286.615-.366l6.915-2.445a1.833 1.833 0 0 1 2.266 2.519 1.83 1.83 0 0 1-1.043.939M188.205 131.093l-6.915 2.445a1.834 1.834 0 0 1-1.223-3.458l6.915-2.445a1.836 1.836 0 0 1 2.443 1.826 1.83 1.83 0 0 1-1.22 1.632M190.161 136.625l-6.916 2.445a1.836 1.836 0 0 1-2.34-1.118 1.83 1.83 0 0 1 .075-1.401 1.83 1.83 0 0 1 1.043-.939l6.915-2.445a1.834 1.834 0 0 1 1.223 3.458"/><path fill="#3F3D56" d="M193.296 95.429 48.49 146.626l.245.692L193.54 96.12z"/><path fill="#3F3D56" d="m202.368 157.399-122.4 43.275a12.117 12.117 0 0 1-15.444-7.376l-21.027-59.471a12.115 12.115 0 0 1 7.376-15.444l122.4-43.276a12.115 12.115 0 0 1 15.444 7.376l21.027 59.471a12.117 12.117 0 0 1-7.376 15.445m-151.25-38.325a11.383 11.383 0 0 0-6.93 14.509l21.027 59.471a11.383 11.383 0 0 0 14.509 6.929l122.399-43.276a11.38 11.38 0 0 0 6.929-14.508l-21.026-59.471a11.383 11.383 0 0 0-14.509-6.93z"/><path fill="#444" d="M327.556 231H.627a.46.46 0 0 1-.313-.124.42.42 0 0 1-.13-.301c0-.112.047-.22.13-.3a.45.45 0 0 1 .313-.124h326.929c.118 0 .231.044.314.124s.13.188.13.3a.42.42 0 0 1-.13.301.46.46 0 0 1-.314.124"/></svg>